<?xml version="1.0" encoding="utf-8"?>
<!-- Generator: Adobe Illustrator 16.0.4, SVG Export Plug-In . SVG Version: 6.00 Build 0)  -->
<!DOCTYPE svg PUBLIC "-//W3C//DTD SVG 1.1//EN" "http://www.w3.org/Graphics/SVG/1.1/DTD/svg11.dtd">
<svg version="1.1" id="Layer_1" xmlns="http://www.w3.org/2000/svg" xmlns:xlink="http://www.w3.org/1999/xlink" x="0px" y="0px"
	 width="32px" height="32px" viewBox="0 0 32 32" enable-background="new 0 0 32 32" xml:space="preserve">
<g id="Layer_9">
	<g>
		<path d="M16.058,4c4.778,0,9.555,0,14.334,0c1.233,0,1.604,0.367,1.604,1.596c0.001,1.275,0.006,2.551-0.001,3.826
			c-0.005,0.996-0.437,1.423-1.437,1.424c-9.709,0.001-19.417,0.001-29.125,0c-1-0.001-1.429-0.43-1.433-1.426
			c-0.004-1.332-0.004-2.665,0-3.997C0.007,4.43,0.438,4.002,1.438,4.001C6.312,3.999,11.185,4,16.058,4z M29.689,6.315
			c-2.299,0-4.551,0-6.789,0c0,0.772,0,1.503,0,2.224c2.285,0,4.523,0,6.789,0C29.689,7.789,29.689,7.073,29.689,6.315z"/>
		<path d="M16.008,22.287c4.814,0,9.631-0.001,14.448,0c1.149,0,1.54,0.391,1.541,1.545c0.002,1.294,0.006,2.588-0.001,3.883
			c-0.006,0.989-0.439,1.416-1.441,1.416c-9.709,0.002-19.417,0.002-29.125,0c-0.995,0-1.423-0.434-1.427-1.432
			c-0.004-1.332-0.005-2.664,0-3.997c0.004-0.987,0.438-1.414,1.441-1.414C6.299,22.285,11.153,22.287,16.008,22.287z
			 M18.311,26.814c3.822,0,7.601,0,11.36,0c0-0.774,0-1.506,0-2.225c-3.81,0-7.571,0-11.36,0
			C18.311,25.339,18.311,26.055,18.311,26.814z"/>
		<path d="M16.004,13.144c4.816,0,9.633-0.001,14.448,0c1.153,0,1.544,0.39,1.545,1.541c0.001,1.295,0.006,2.59-0.001,3.883
			c-0.005,0.994-0.438,1.42-1.438,1.42c-9.709,0.003-19.417,0.003-29.125,0c-0.999,0-1.426-0.43-1.43-1.428
			c-0.004-1.332-0.005-2.667,0-3.999c0.004-0.991,0.435-1.418,1.438-1.418C6.296,13.142,11.15,13.144,16.004,13.144z M29.689,15.459
			c-6.107,0-12.17,0-18.216,0c0,0.772,0,1.502,0,2.223c6.093,0,12.142,0,18.216,0C29.689,16.932,29.689,16.215,29.689,15.459z"/>
	</g>
</g>
</svg>
