<?xml version="1.0" encoding="UTF-8" standalone="no"?>
<svg
   xmlns:dc="http://purl.org/dc/elements/1.1/"
   xmlns:cc="http://creativecommons.org/ns#"
   xmlns:rdf="http://www.w3.org/1999/02/22-rdf-syntax-ns#"
   xmlns:svg="http://www.w3.org/2000/svg"
   xmlns="http://www.w3.org/2000/svg"
   xmlns:sodipodi="http://sodipodi.sourceforge.net/DTD/sodipodi-0.dtd"
   xmlns:inkscape="http://www.inkscape.org/namespaces/inkscape"
   version="1.1"
   x="0px"
   y="0px"
   viewBox="0 0 69.199997 90"
   xml:space="preserve"
   id="svg2"
   inkscape:version="0.91 r13725"
   sodipodi:docname="noun_207436_cc.svg"
   width="69.199997"
   height="90"><metadata
     id="metadata36"><rdf:RDF><cc:Work
         rdf:about=""><dc:format>image/svg+xml</dc:format><dc:type
           rdf:resource="http://purl.org/dc/dcmitype/StillImage" /><dc:title></dc:title></cc:Work></rdf:RDF></metadata><defs
     id="defs34" /><sodipodi:namedview
     pagecolor="#ffffff"
     bordercolor="#666666"
     borderopacity="1"
     objecttolerance="10"
     gridtolerance="10"
     guidetolerance="10"
     inkscape:pageopacity="0"
     inkscape:pageshadow="2"
     inkscape:window-width="1920"
     inkscape:window-height="1030"
     id="namedview32"
     showgrid="false"
     fit-margin-top="0"
     fit-margin-left="0"
     fit-margin-right="0"
     fit-margin-bottom="0"
     inkscape:zoom="1.888"
     inkscape:cx="36.688983"
     inkscape:cy="32.5"
     inkscape:window-x="0"
     inkscape:window-y="24"
     inkscape:window-maximized="1"
     inkscape:current-layer="svg2" /><polygon
     points="15.8,73.2 15.8,73.2 17,54.7 19.4,51.8 16.9,79.9 14.9,77.8 15.4,75.8 "
     id="polygon4"
     transform="translate(-14.9,-5)" /><polygon
     points="17.7,50.5 18.4,37.2 16.3,41.7 16.3,50.5 "
     id="polygon6"
     transform="translate(-14.9,-5)" /><polygon
     points="19,46.1 20.5,46.1 22.5,10 23.7,9.7 33,8.4 33.1,7.7 34.9,6.6 34.9,5.8 21.3,5 19,5.8 20.7,9.9 "
     id="polygon8"
     transform="translate(-14.9,-5)" /><path
     d="m 57.7,34.2 1.3,0 C 58.8,30 57.6,27.8 57.6,27.8 l -1.3,0 c 1.3,2.6 1.4,6.4 1.4,6.4 z"
     id="path10"
     inkscape:connector-curvature="0" /><path
     d="m 55.3,34.2 1.3,0 C 56.4,30 55.2,27.8 55.2,27.8 l -1.3,0 c 1.2,2.6 1.4,6.4 1.4,6.4 z"
     id="path12"
     inkscape:connector-curvature="0" /><path
     d="m 59.7,34.2 1.1,0 C 60.6,30 59.4,27.8 59.4,27.8 l -1.1,0 c 1.3,2.6 1.4,6.4 1.4,6.4 z"
     id="path14"
     inkscape:connector-curvature="0" /><path
     d="m 61.4,34.2 0.6,0 C 61.8,30 60.6,27.8 60.6,27.8 l -0.6,0 c 1.2,2.6 1.4,6.4 1.4,6.4 z"
     id="path16"
     inkscape:connector-curvature="0" /><path
     d="m 8.2,40.5 0,2.1 c 0,0 7.9,3.8 21.3,5.4 l 0,41.7 c 0,0 4.4,0.3 6.8,0.3 2.4,0 6.8,-0.3 6.8,-0.3 l 0,-41.7 c 13.5,-1.6 21.4,-5.4 21.4,-5.4 l 0,-2.1 c -31.1,3.8 -56.3,0 -56.3,0 z"
     id="path18"
     inkscape:connector-curvature="0" /><path
     d="m 8.2,36.9 c 0.2,0 11.7,1 28.3,1 8.4,0 18,-0.3 28.1,-1 l 0,-1 c -30,2.3 -56.1,0 -56.4,0 l 0,1 z"
     id="path20"
     inkscape:connector-curvature="0" /><path
     d="m 36.3,13.3 c 0,0 -12.3,-0.7 -21.3,7.3 0,0 -5.1,4.2 -6.3,13.6 l -1,0 c 0,-0.3 -0.2,-8.5 6.1,-15 5,-5.2 12.5,-7.8 22.5,-7.9 9.9,0.1 17.5,2.7 22.5,7.9 6.3,6.5 6.1,14.7 6.1,15 l -1,0 c -1.2,-9.4 -6.3,-13.6 -6.3,-13.6 -9,-8 -21.3,-7.3 -21.3,-7.3 z"
     id="path22"
     inkscape:connector-curvature="0" /><path
     d="M 66.8,47.1 C 58.5,48.9 53.5,55.2 53.5,55.2 45.2,65.4 46.7,89 46.7,89 l 0.7,-0.3 21.8,-13 -2.4,-28.6 z M 54.5,59.4 c 2.6,-2.4 5.2,0.3 5.2,0.3 3.7,3.8 5.8,11.6 6.6,15.7 L 47.5,87.2 c 0.3,-5.2 1.7,-22.8 7,-27.8 z"
     id="path24"
     inkscape:connector-curvature="0" /><path
     d="m 3.4,75.7 21.8,13 0.7,0.3 c 0,0 1.5,-23.6 -6.8,-33.8 0,0 -5,-6.3 -13.3,-8.1 L 3.4,75.7 Z M 25.2,87.2 6.3,75.4 c 0.9,-4.1 2.9,-11.9 6.6,-15.7 0,0 2.6,-2.7 5.2,-0.3 5.3,5 6.8,22.6 7.1,27.8 z"
     id="path26"
     inkscape:connector-curvature="0" /></svg>