<?xml version="1.0" encoding="utf-8"?>
<!-- Generator: Adobe Illustrator 16.0.4, SVG Export Plug-In . SVG Version: 6.00 Build 0)  -->
<!DOCTYPE svg PUBLIC "-//W3C//DTD SVG 1.1//EN" "http://www.w3.org/Graphics/SVG/1.1/DTD/svg11.dtd">
<svg version="1.1" id="Layer_1" xmlns="http://www.w3.org/2000/svg" xmlns:xlink="http://www.w3.org/1999/xlink" x="0px" y="0px"
	 width="32px" height="32px" viewBox="0 0 32 32" enable-background="new 0 0 32 32" xml:space="preserve">
<g id="Layer_1_1_">
	<rect x="19.081" y="9.618" width="12.8" height="2.133"/>
	<polygon points="19.081,13.884 19.081,30.951 23.348,30.951 23.348,22.418 27.613,22.418 27.613,30.951 31.881,30.951 
		31.881,13.884 	"/>
	<path d="M0,1.048v29.866l17.066,0.037V1.084L0,1.048z M7.219,22.418H2.952V18.15h4.267V22.418z M7.219,16.018H2.952v-4.267h4.267
		V16.018z M7.219,9.618H2.952V5.351h4.267V9.618z M13.619,22.418H9.353V18.15h4.267L13.619,22.418L13.619,22.418z M13.619,16.018
		H9.353v-4.267h4.267L13.619,16.018L13.619,16.018z M13.619,9.618H9.353V5.351h4.267L13.619,9.618L13.619,9.618z"/>
</g>
</svg>
