<?xml version="1.0" encoding="utf-8"?>
<!-- Generator: Adobe Illustrator 16.0.4, SVG Export Plug-In . SVG Version: 6.00 Build 0)  -->
<!DOCTYPE svg PUBLIC "-//W3C//DTD SVG 1.1//EN" "http://www.w3.org/Graphics/SVG/1.1/DTD/svg11.dtd">
<svg version="1.1" id="Layer_1" xmlns="http://www.w3.org/2000/svg" xmlns:xlink="http://www.w3.org/1999/xlink" x="0px" y="0px"
	 width="32px" height="32px" viewBox="0 0 32 32" enable-background="new 0 0 32 32" xml:space="preserve">
<g id="Layer_8">
	<g>
		<path d="M20.596,4.141c3.486,0,6.971-0.001,10.457,0c0.795,0,0.942,0.145,0.943,0.919c0.003,0.952,0.007,1.905-0.001,2.857
			C31.99,8.498,31.786,8.7,31.197,8.7c-7.086,0.002-14.17,0.002-21.253,0c-0.609,0-0.796-0.201-0.8-0.835
			c-0.004-0.953-0.004-1.905,0-2.857c0.002-0.702,0.168-0.866,0.883-0.866C13.549,4.14,17.072,4.141,20.596,4.141z"/>
		<path d="M20.6,13.285c3.485,0,6.971-0.001,10.457,0.001c0.789,0,0.938,0.146,0.939,0.924c0.003,0.934,0.006,1.866-0.001,2.799
			c-0.004,0.638-0.188,0.837-0.802,0.837c-7.084,0.002-14.17,0.002-21.253,0c-0.593,0-0.791-0.199-0.794-0.783
			c-0.008-0.972-0.005-1.94-0.001-2.914c0.002-0.699,0.168-0.862,0.886-0.862C13.553,13.284,17.076,13.285,20.6,13.285z"/>
		<path d="M20.57,26.988c-3.506,0-7.008,0-10.512,0c-0.752,0-0.913-0.158-0.916-0.896c-0.002-0.95-0.005-1.901,0.003-2.854
			c0.002-0.627,0.184-0.809,0.823-0.809c7.067-0.002,14.132-0.002,21.198,0c0.635,0,0.824,0.184,0.829,0.805
			c0.007,0.974,0.005,1.945,0,2.916c-0.004,0.66-0.183,0.838-0.854,0.838C27.618,26.992,24.094,26.988,20.57,26.988z"/>
		<path d="M0.001,6.375C0.034,4.488,1.577,2.981,3.456,3c1.902,0.018,3.443,1.606,3.391,3.495C6.795,8.381,5.232,9.884,3.365,9.842
			C1.481,9.799-0.032,8.24,0.001,6.375z"/>
		<path d="M3.43,12.144c1.87-0.007,3.412,1.531,3.419,3.412c0.008,1.87-1.534,3.424-3.4,3.43C1.567,18.994,0.025,17.479,0,15.603
			C-0.023,13.705,1.516,12.152,3.43,12.144z"/>
		<path d="M3.424,21.287c1.87-0.012,3.413,1.523,3.425,3.406c0.012,1.869-1.526,3.427-3.395,3.438
			c-1.88,0.01-3.425-1.502-3.454-3.378C-0.028,22.855,1.51,21.3,3.424,21.287z"/>
	</g>
</g>
</svg>
