<?xml version="1.0" encoding="utf-8"?>
<!-- Generator: Adobe Illustrator 16.0.4, SVG Export Plug-In . SVG Version: 6.00 Build 0)  -->
<!DOCTYPE svg PUBLIC "-//W3C//DTD SVG 1.1//EN" "http://www.w3.org/Graphics/SVG/1.1/DTD/svg11.dtd">
<svg version="1.1" id="Layer_1" xmlns="http://www.w3.org/2000/svg" xmlns:xlink="http://www.w3.org/1999/xlink" x="0px" y="0px"
	 width="32px" height="32px" viewBox="0 0 32 32" enable-background="new 0 0 32 32" xml:space="preserve">
<g id="Layer_10">
	<g>
		<path d="M16.625,26.165c-0.156-0.083-0.321-0.146-0.457-0.248c-0.482-0.362-0.966-0.728-1.427-1.117
			c-0.249-0.212-0.449-0.19-0.759-0.104c-0.729,0.197-1.034,0.598-1.011,1.354c0.014,0.453-0.136,0.91-0.21,1.365
			c-0.07,0.435-0.292,0.642-0.761,0.626c-0.888-0.025-1.777-0.021-2.667-0.003c-0.456,0.01-0.692-0.181-0.75-0.634
			c-0.078-0.615-0.191-1.229-0.264-1.846c-0.04-0.328-0.176-0.488-0.486-0.66c-0.647-0.355-1.131-0.276-1.641,0.23
			c-0.323,0.324-0.731,0.562-1.1,0.842c-0.28,0.213-0.57,0.229-0.82-0.019c-0.692-0.687-1.368-1.392-2.05-2.093
			c-0.35-0.358-0.312-0.699,0.009-1.071c0.371-0.431,0.696-0.899,1.06-1.337c0.182-0.219,0.157-0.389,0.084-0.66
			c-0.233-0.863-0.75-1.232-1.63-1.221c-0.402,0.007-0.805-0.125-1.209-0.182c-0.358-0.052-0.534-0.248-0.534-0.607
			c0-0.961,0.003-1.92-0.001-2.881C0,15.47,0.259,15.316,0.636,15.26c0.65-0.095,1.297-0.213,1.949-0.291
			c0.285-0.035,0.386-0.187,0.531-0.416c0.448-0.707,0.285-1.264-0.269-1.812c-0.276-0.273-0.495-0.604-0.743-0.905
			c-0.25-0.304-0.285-0.613,0.002-0.905c0.67-0.685,1.344-1.367,2.027-2.038c0.385-0.377,0.764-0.345,1.17,0.017
			C5.726,9.288,6.177,9.641,6.65,9.954c0.165,0.108,0.436,0.099,0.651,0.075c0.186-0.021,0.354-0.168,0.542-0.21
			c0.315-0.07,0.416-0.268,0.451-0.562C8.37,8.622,8.466,7.99,8.56,7.358c0.067-0.451,0.292-0.678,0.791-0.66
			c0.87,0.031,1.743,0.028,2.613,0.001c0.518-0.016,0.743,0.214,0.802,0.703c0.074,0.617,0.171,1.232,0.262,1.846
			c0.088,0.593,1.176,1.049,1.656,0.694c0.514-0.381,1.025-0.767,1.532-1.157c0.296-0.229,0.595-0.253,0.864,0.013
			c0.669,0.662,1.322,1.34,1.984,2.009c0.4,0.406,0.369,0.782-0.01,1.201c-0.355,0.394-0.648,0.846-0.99,1.255
			c-0.197,0.238-0.147,0.439-0.078,0.72c0.207,0.834,0.707,1.177,1.546,1.171c0.403-0.003,0.806,0.131,1.211,0.178
			c0.409,0.048,0.595,0.262,0.593,0.67c-0.005,0.924-0.009,1.85,0.002,2.773c0.004,0.439-0.218,0.644-0.631,0.703
			c-0.648,0.092-1.298,0.207-1.949,0.289c-0.273,0.035-0.391,0.168-0.535,0.404c-0.426,0.704-0.312,1.266,0.26,1.812
			c0.293,0.281,0.568,0.604,0.761,0.957c0.11,0.203,0.155,0.611,0.03,0.75c-0.713,0.785-1.48,1.522-2.241,2.27
			C16.934,26.055,16.782,26.089,16.625,26.165z M14.934,17.387c0.018-2.333-1.901-4.273-4.248-4.288
			c-2.341-0.015-4.274,1.9-4.288,4.249c-0.014,2.34,1.898,4.273,4.248,4.293C12.978,21.658,14.916,19.736,14.934,17.387z"/>
		<path d="M22.163,11.418c-0.021-0.333-0.573-0.914-0.888-0.959c-0.543-0.08-1.086-0.162-1.631-0.246
			c-0.303-0.046-0.465-0.186-0.447-0.532c0.025-0.568,0.023-1.138,0-1.706c-0.012-0.313,0.121-0.465,0.406-0.513
			c0.489-0.083,0.979-0.185,1.474-0.226c0.403-0.033,0.669-0.16,0.877-0.546c0.173-0.322,0.187-0.554,0.037-0.875
			c-0.229-0.497-0.423-1.016-0.576-1.541c-0.042-0.14,0.067-0.414,0.192-0.497c0.502-0.333,1.045-0.605,1.56-0.92
			c0.272-0.167,0.461-0.094,0.644,0.128c0.291,0.358,0.629,0.687,0.871,1.075c0.271,0.433,0.613,0.624,1.098,0.508
			c0.199-0.047,0.423-0.146,0.558-0.292c0.373-0.403,0.718-0.837,1.052-1.274c0.197-0.261,0.396-0.306,0.678-0.135
			c0.502,0.304,1.013,0.591,1.524,0.874c0.242,0.133,0.323,0.293,0.214,0.564c-0.183,0.442-0.324,0.901-0.51,1.342
			c-0.396,0.946-0.066,1.496,0.969,1.594c1.739,0.164,1.739,0.164,1.737,1.879c0,1.063,0,1.063-1.041,1.208
			c-0.247,0.035-0.499,0.123-0.735,0.095c-0.666-0.081-0.896,0.392-1.121,0.851c-0.056,0.11,0.012,0.301,0.062,0.439
			c0.194,0.532,0.399,1.061,0.62,1.585c0.124,0.298,0.07,0.49-0.229,0.647c-0.52,0.272-1.008,0.602-1.533,0.854
			c-0.149,0.071-0.461,0.028-0.574-0.086c-0.373-0.376-0.699-0.802-1.026-1.222c-0.446-0.574-1.18-0.583-1.618-0.021
			c-0.328,0.42-0.678,0.823-1.011,1.239c-0.188,0.234-0.381,0.262-0.644,0.099c-0.496-0.309-1.006-0.6-1.521-0.877
			c-0.277-0.149-0.324-0.33-0.21-0.609c0.224-0.541,0.429-1.088,0.642-1.633C22.096,11.59,22.134,11.492,22.163,11.418z
			 M27.736,8.815c-0.008-1.156-0.998-2.128-2.155-2.118c-1.155,0.01-2.127,1.003-2.113,2.16c0.015,1.171,0.987,2.125,2.156,2.113
			C26.791,10.96,27.743,9.987,27.736,8.815z"/>
	</g>
</g>
</svg>
