<?xml version="1.0" encoding="UTF-8" standalone="no"?>
<svg
   xmlns:dc="http://purl.org/dc/elements/1.1/"
   xmlns:cc="http://creativecommons.org/ns#"
   xmlns:rdf="http://www.w3.org/1999/02/22-rdf-syntax-ns#"
   xmlns:svg="http://www.w3.org/2000/svg"
   xmlns="http://www.w3.org/2000/svg"
   xmlns:sodipodi="http://sodipodi.sourceforge.net/DTD/sodipodi-0.dtd"
   xmlns:inkscape="http://www.inkscape.org/namespaces/inkscape"
   xml:space="preserve"
   version="1.1"
   style="fill-rule:evenodd"
   viewBox="0 0 781.1309 963.56315"
   x="0px"
   y="0px"
   clip-rule="evenodd"
   id="svg2"
   inkscape:version="0.48.4 r9939"
   width="100%"
   height="100%"
   sodipodi:docname="noun_995066_cc.svg"><metadata
     id="metadata16"><rdf:RDF><cc:Work
         rdf:about=""><dc:format>image/svg+xml</dc:format><dc:type
           rdf:resource="http://purl.org/dc/dcmitype/StillImage" /><dc:title></dc:title></cc:Work></rdf:RDF></metadata><sodipodi:namedview
     pagecolor="#ffffff"
     bordercolor="#666666"
     borderopacity="1"
     objecttolerance="10"
     gridtolerance="10"
     guidetolerance="10"
     inkscape:pageopacity="0"
     inkscape:pageshadow="2"
     inkscape:window-width="1440"
     inkscape:window-height="843"
     id="namedview14"
     showgrid="false"
     fit-margin-top="0"
     fit-margin-left="0"
     fit-margin-right="0"
     fit-margin-bottom="0"
     inkscape:zoom="0.27724343"
     inkscape:cx="126.73517"
     inkscape:cy="81.758001"
     inkscape:window-x="0"
     inkscape:window-y="0"
     inkscape:window-maximized="1"
     inkscape:current-layer="svg2" /><defs
     id="defs4"><style
       type="text/css"
       id="style6">
   
    .fil0 {fill:#020202}
    .fil2 {fill:#030303}
    .fil1 {fill:#050505}
    .fil3 {fill:#060606}
   
  </style></defs><path
     style="color:#000000;fill:#000000;fill-opacity:1;fill-rule:nonzero;stroke:none;visibility:visible;display:inline;overflow:visible;enable-background:accumulate"
     d="m 390.56544,0 c -26.15158,1.34097 -74.73427,45.504996 -84.57231,65.198675 l -2.42851,266.158005 -59.00032,-1.39579 -0.0686,-221.44233 c -86,49.99998 -174.371902,153.65088 -190.371901,290.65087 l -47.5596746,2.79158 c -9.0000106,30.99999 -9.5569099,90.44058 3.4430796,114.44058 42.87593,13.31534 318.558236,8.55828 380.558236,8.55828 62,0 337.68231,4.75706 380.55824,-8.55828 12.99999,-24.00001 12.44309,-83.44058 3.44309,-114.44058 l -47.5597,-2.79158 c -16,-137 -104.37191,-240.65089 -190.3719,-290.65087 l -0.0686,221.44233 -59.00032,1.39579 -2.42851,-266.158005 C 465.29968,45.504996 416.71702,1.3409759 390.56544,0 z M 41.565752,564.95971 c 0,0 -29.536058,81.46529 2.999332,136.00069 44.764709,51.92762 30.976321,16.41872 64.998986,92.99948 50.81016,98.00258 150.034,181.90519 281.00137,168.11189 130.96737,13.79336 230.19121,-70.10934 281.00138,-168.11189 34.02267,-76.58076 20.23427,-41.07185 64.99898,-92.99948 32.5354,-54.5354 2.99934,-136.00069 2.99934,-136.00069 l -99.00017,0 c 0,0 47.00161,20.53556 35.00163,81.00014 -9,58 -35.0001,26.00105 -54.0001,74.00102 -19.99999,50 -62.00106,126.99845 -101.00106,139.99844 -1.96181,-157.92531 -25.29982,-93.74139 -130,-91.2265 -104.70018,-2.5149 -128.0382,-66.69881 -130,91.2265 -39,-12.99998 -81.00107,-89.99843 -101.00106,-139.99844 -19,-47.99997 -45.00009,-16.00102 -54.00009,-74.00102 -11.999988,-60.46458 35.00163,-81.00014 35.00163,-81.00014 l -99.000168,0 z m 232.810338,4.2257 c -17.17477,5.4e-4 -31.09721,13.92389 -31.09665,31.09866 5.5e-4,17.17397 13.92267,31.0961 31.09665,31.09665 17.17477,5.7e-4 31.09812,-13.9219 31.09866,-31.09665 5.7e-4,-17.17555 -13.92312,-31.09922 -31.09866,-31.09866 z m 232.3787,0 c -17.17555,-5.7e-4 -31.09923,13.92311 -31.09867,31.09866 5.5e-4,17.17476 13.9239,31.09722 31.09867,31.09665 17.17398,-5.5e-4 31.0961,-13.92267 31.09664,-31.09665 5.7e-4,-17.17476 -13.92188,-31.09812 -31.09664,-31.09866 z M 309.89206,798.84514 c 33.39057,7.85411 47.74033,9.00304 80.67338,9.9339 32.93306,-0.93086 47.28282,-2.07979 80.67338,-9.9339 l 5.32699,86.11534 c -70.90653,1.44193 -28.55859,3.44099 -58.55859,-32.55899 l -27.44178,-1.0287 -27.44177,1.0287 c -30,35.99997 12.34793,34.00089 -58.5586,32.55899 l 5.32699,-86.11534 z"
     id="path8"
     inkscape:connector-curvature="0" /></svg>