<?xml version="1.0" encoding="utf-8"?>
<!-- Generator: Adobe Illustrator 16.0.4, SVG Export Plug-In . SVG Version: 6.00 Build 0)  -->
<!DOCTYPE svg PUBLIC "-//W3C//DTD SVG 1.1//EN" "http://www.w3.org/Graphics/SVG/1.1/DTD/svg11.dtd">
<svg version="1.1" id="Layer_1" xmlns="http://www.w3.org/2000/svg" xmlns:xlink="http://www.w3.org/1999/xlink" x="0px" y="0px"
	 width="32px" height="32px" viewBox="0 0 32 32" enable-background="new 0 0 32 32" xml:space="preserve">
<g id="Layer_11">
	<path d="M15.958,6c6.028,0.213,10.819,2.778,14.532,7.437c0.438,0.549,0.82,1.147,1.18,1.752c0.482,0.815,0.418,1.659-0.079,2.438
		c-3.163,4.943-7.603,8.027-13.44,8.84c-4.98,0.691-9.408-0.82-13.343-3.873c-1.719-1.332-3.133-2.943-4.312-4.77
		c-0.651-1.012-0.664-1.981-0.001-2.986c3.135-4.749,7.463-7.692,13.101-8.632C14.379,6.076,15.185,6.065,15.958,6z M22.922,10.029
		c2.025,3.891,0.949,7.848-1.855,10.192c-2.635,2.203-6.553,2.457-9.425,0.537c-1.723-1.15-2.927-2.715-3.424-4.756
		C7.721,13.967,8,12.014,9.055,10.024c-2.947,1.544-5.111,3.669-6.793,6.296c3.376,5.319,8.77,8.333,14.607,7.985
		c5.681-0.339,9.729-3.437,12.863-7.95C28,13.677,25.848,11.558,22.922,10.029z M15.721,8.616c-1.625,0.08-2.84,0.755-3.834,1.865
		c-0.876,0.976-1.308,2.131-1.339,3.435c-0.013,0.545,0.303,0.918,0.774,0.963c0.484,0.045,0.831-0.247,0.936-0.795
		c0.028-0.149,0.006-0.314,0.06-0.452c0.242-0.629,0.407-1.316,0.778-1.86c0.605-0.888,1.521-1.342,2.619-1.416
		c0.807-0.055,1.18-0.42,1.105-1.002C16.752,8.813,16.334,8.562,15.721,8.616z"/>
</g>
</svg>
