<?xml version="1.0" encoding="UTF-8" standalone="no"?>
<svg
   xmlns:dc="http://purl.org/dc/elements/1.1/"
   xmlns:cc="http://creativecommons.org/ns#"
   xmlns:rdf="http://www.w3.org/1999/02/22-rdf-syntax-ns#"
   xmlns:svg="http://www.w3.org/2000/svg"
   xmlns="http://www.w3.org/2000/svg"
   xmlns:sodipodi="http://sodipodi.sourceforge.net/DTD/sodipodi-0.dtd"
   xmlns:inkscape="http://www.inkscape.org/namespaces/inkscape"
   version="1.1"
   x="0px"
   y="0px"
   viewBox="0 0 99.998918 97.310575"
   enable-background="new 0 0 100 97.311"
   xml:space="preserve"
   id="svg3065"
   inkscape:version="0.48.4 r9939"
   width="100%"
   height="100%"
   sodipodi:docname="noun_18486_cc.svg"><metadata
     id="metadata3105"><rdf:RDF><cc:Work
         rdf:about=""><dc:format>image/svg+xml</dc:format><dc:type
           rdf:resource="http://purl.org/dc/dcmitype/StillImage" /></cc:Work></rdf:RDF></metadata><defs
     id="defs3103" /><sodipodi:namedview
     pagecolor="#ffffff"
     bordercolor="#666666"
     borderopacity="1"
     objecttolerance="10"
     gridtolerance="10"
     guidetolerance="10"
     inkscape:pageopacity="0"
     inkscape:pageshadow="2"
     inkscape:window-width="640"
     inkscape:window-height="480"
     id="namedview3101"
     showgrid="false"
     fit-margin-top="0"
     fit-margin-left="0"
     fit-margin-right="0"
     fit-margin-bottom="0"
     inkscape:zoom="1.9401712"
     inkscape:cx="49.999947"
     inkscape:cy="36.491624"
     inkscape:window-x="0"
     inkscape:window-y="0"
     inkscape:window-maximized="0"
     inkscape:current-layer="svg3065" /><g
     id="g3067"
     transform="translate(-5.2658132e-5,-4.2319931e-4)"><path
       d="m 24.176,95.872 c -0.118,0 -0.236,-0.019 -0.354,-0.062 C 23.28,95.615 23,95.019 23.195,94.478 30.163,75.152 21.71,59.091 17.647,51.374 16.54,49.271 15.808,47.881 15.666,46.957 13.235,31.168 14.795,30.861 15.633,30.695 c 0.732,-0.144 2.333,-0.892 3.17,-1.331 0.51,-0.268 1.139,-0.069 1.408,0.439 0.267,0.51 0.069,1.139 -0.439,1.406 -0.222,0.116 -1.986,1.031 -3.266,1.411 -0.287,1.677 0.371,8.505 1.219,14.019 0.09,0.58 0.867,2.056 1.766,3.765 4.201,7.981 12.943,24.589 5.666,44.778 -0.155,0.427 -0.553,0.69 -0.981,0.69 z"
       id="path3069"
       inkscape:connector-curvature="0" /><path
       d="m 23.118,50.781 c -0.509,0 -0.954,-0.374 -1.029,-0.895 -0.008,-0.065 -0.958,-6.669 -1.518,-9.19 C 19.997,38.11 17.505,23.249 17.4,22.618 l -0.085,-0.515 0.36,-0.377 c 1.772,-1.854 5.827,0.528 7.214,1.831 0.419,0.394 0.441,1.053 0.049,1.472 -0.397,0.422 -1.054,0.438 -1.473,0.048 -1.145,-1.074 -2.988,-1.873 -3.867,-1.957 0.549,3.262 2.522,14.94 3.009,17.125 0.576,2.598 1.505,9.073 1.546,9.348 0.081,0.569 -0.313,1.096 -0.883,1.179 -0.052,0.007 -0.101,0.009 -0.152,0.009 z"
       id="path3071"
       inkscape:connector-curvature="0" /><path
       d="m 29.067,50.781 c -0.389,0 -0.763,-0.22 -0.942,-0.596 -0.12,-0.256 -2.964,-6.313 -3.261,-11.251 -0.283,-4.723 -1.711,-20.071 -1.725,-20.226 l -0.059,-0.643 0.547,-0.34 c 0.167,-0.104 1.688,-0.996 3.369,-0.474 1.123,0.348 1.996,1.212 2.594,2.57 0.619,1.404 0.779,3.308 0.966,5.512 0.313,3.692 0.702,8.287 3.412,12.461 0.311,0.482 0.175,1.127 -0.307,1.44 -0.48,0.311 -1.127,0.178 -1.443,-0.308 C 29.225,34.314 28.812,29.431 28.481,25.508 28.31,23.49 28.162,21.745 27.684,20.66 27.342,19.884 26.907,19.408 26.392,19.243 26.008,19.122 25.6,19.175 25.283,19.266 c 0.293,3.164 1.412,15.393 1.66,19.542 0.273,4.532 3.038,10.426 3.066,10.484 0.247,0.52 0.022,1.142 -0.496,1.388 -0.145,0.069 -0.295,0.101 -0.446,0.101 z"
       id="path3073"
       inkscape:connector-curvature="0" /><path
       d="m 42.871,97.311 c -0.014,0 -0.028,0 -0.043,-0.003 -0.576,-0.021 -1.021,-0.508 -0.999,-1.082 0.828,-19.849 7.491,-24.937 11.472,-27.979 1.577,-1.204 2.336,-1.822 2.336,-2.718 0,-3.306 1.198,-7.069 2.254,-10.388 1.064,-3.345 2.269,-7.131 1.225,-8.147 -0.614,-0.597 -1.133,-0.886 -1.469,-0.802 -1.146,0.322 -2.109,4.093 -2.815,6.846 -1.04,4.064 -1.938,7.572 -4.169,8.271 -2.612,0.812 -4.883,-2.909 -6.712,-5.906 -0.405,-0.663 -0.765,-1.255 -1.064,-1.672 -1.534,-2.148 -5.369,-13.513 -5.369,-15.37 0,-2.748 -0.557,-14.851 -1.731,-16.886 -0.224,-0.39 -0.432,-0.465 -0.588,-0.487 -0.535,-0.079 -1.369,0.402 -1.892,0.803 0.168,2.393 0.828,12.06 0.828,16.571 0,4.843 1.939,10.572 1.958,10.63 0.187,0.544 -0.104,1.136 -0.647,1.322 -0.545,0.182 -1.138,-0.104 -1.323,-0.648 -0.085,-0.247 -2.071,-6.108 -2.071,-11.304 0,-4.986 -0.851,-16.829 -0.861,-16.948 l -0.035,-0.49 0.356,-0.339 c 0.208,-0.199 2.093,-1.919 3.983,-1.659 0.608,0.088 1.469,0.421 2.095,1.509 1.733,3.005 2.01,17.783 2.01,17.928 0.016,1.337 3.613,12.245 4.982,14.159 0.319,0.448 0.708,1.083 1.146,1.797 0.891,1.459 3.245,5.316 4.311,5.005 1.124,-0.353 2.078,-4.079 2.773,-6.802 1.058,-4.124 1.97,-7.686 4.271,-8.334 1.093,-0.306 2.272,0.131 3.485,1.314 1.967,1.915 0.734,5.787 -0.692,10.271 -1.011,3.174 -2.156,6.775 -2.156,9.758 0,1.966 -1.463,3.082 -3.155,4.374 -3.691,2.82 -9.868,7.536 -10.653,26.408 -0.024,0.56 -0.486,0.998 -1.041,0.998 z"
       id="path3075"
       inkscape:connector-curvature="0" /><path
       d="m 98.958,70.561 c -0.145,0 -0.289,-0.03 -0.43,-0.092 C 94.132,68.484 87.88,58.145 86.995,51.394 83.245,22.803 71.734,14.48 62.737,12.535 51.587,10.124 39.831,16.62 37.133,20.958 c -0.303,0.49 -0.948,0.637 -1.435,0.334 -0.49,-0.304 -0.639,-0.947 -0.335,-1.436 2.86,-4.6 15.273,-12.074 27.813,-9.357 9.652,2.087 21.977,10.83 25.886,40.626 0.842,6.429 6.872,15.886 10.324,17.444 0.523,0.235 0.757,0.854 0.521,1.379 -0.175,0.385 -0.553,0.613 -0.949,0.613 z"
       id="path3077"
       inkscape:connector-curvature="0" /><path
       d="m 59.46,94.562 c -0.522,0 -0.982,-0.057 -1.36,-0.175 -2.732,-0.839 -5.803,-4.21 -8.271,-6.917 -1.166,-1.282 -2.269,-2.49 -2.979,-3.023 -0.46,-0.346 -0.554,-0.997 -0.209,-1.457 0.348,-0.464 1.001,-0.554 1.458,-0.21 0.867,0.649 1.981,1.872 3.27,3.286 2.177,2.389 5.155,5.658 7.343,6.331 1.397,0.428 5.546,-0.565 9.436,-3.471 3.213,-2.4 8.584,-7.926 8.468,-17.956 -0.006,-0.576 0.453,-1.046 1.029,-1.054 0.004,0 0.008,0 0.012,0 0.57,0 1.036,0.46 1.042,1.029 0.126,10.953 -5.775,17.013 -9.304,19.649 -3.561,2.661 -7.463,3.968 -9.935,3.968 z"
       id="path3079"
       inkscape:connector-curvature="0" /><path
       d="m 76.773,59.634 c -1.358,0 -1.998,-0.64 -2.267,-1.042 -0.319,-0.479 -0.188,-1.125 0.289,-1.444 0.473,-0.317 1.123,-0.191 1.444,0.289 0.017,0.026 0.227,0.142 0.723,0.107 1.636,-0.12 4.596,-1.748 5.894,-4.496 1.158,-2.445 0.721,-5.228 -1.265,-8.045 -1.638,-2.321 -3.198,-3.395 -4.635,-3.209 -2.554,0.334 -4.625,4.515 -5.209,6.097 -0.199,0.541 -0.799,0.817 -1.336,0.618 -0.539,-0.198 -0.816,-0.797 -0.616,-1.338 0.102,-0.279 2.577,-6.876 6.891,-7.443 2.276,-0.301 4.492,1.074 6.607,4.075 3.087,4.38 2.49,7.929 1.447,10.136 -1.573,3.322 -5.113,5.5 -7.628,5.683 -0.117,0.007 -0.228,0.012 -0.339,0.012 z"
       id="path3081"
       inkscape:connector-curvature="0" /><path
       d="m 80.263,94.569 c -0.252,0 -0.504,-0.091 -0.706,-0.276 -0.423,-0.389 -0.449,-1.048 -0.061,-1.471 0.415,-0.91 -2.004,-5.581 -5.196,-9.967 -0.338,-0.466 -0.236,-1.117 0.229,-1.457 0.464,-0.334 1.117,-0.236 1.455,0.229 2.746,3.772 7.054,10.425 5.046,12.606 -0.206,0.223 -0.486,0.336 -0.767,0.336 z"
       id="path3083"
       inkscape:connector-curvature="0" /><path
       d="m 15.119,18.139 c -0.317,0 -0.633,-0.146 -0.838,-0.422 C 14.242,17.665 10.373,12.453 7.626,10.175 7.182,9.808 7.121,9.151 7.489,8.708 7.855,8.266 8.51,8.204 8.956,8.572 c 2.94,2.439 6.836,7.683 7.001,7.906 0.341,0.462 0.244,1.114 -0.218,1.457 -0.187,0.138 -0.405,0.204 -0.62,0.204 z"
       id="path3085"
       inkscape:connector-curvature="0" /><path
       d="m 25.903,11.615 c -0.549,0 -1.007,-0.427 -1.04,-0.98 -0.091,-1.542 -0.61,-5.89 -1.91,-7.47 -0.366,-0.444 -0.303,-1.101 0.142,-1.467 0.439,-0.365 1.099,-0.304 1.465,0.143 1.965,2.385 2.346,8.036 2.382,8.673 0.035,0.574 -0.405,1.066 -0.979,1.1 -0.019,0 -0.039,10e-4 -0.06,10e-4 z"
       id="path3087"
       inkscape:connector-curvature="0" /><path
       d="m 36.251,11.615 c -0.057,0 -0.112,-0.004 -0.169,-0.013 -0.568,-0.092 -0.954,-0.627 -0.861,-1.195 0.039,-0.239 0.969,-5.89 2.729,-9.794 0.238,-0.526 0.858,-0.755 1.377,-0.521 0.525,0.237 0.759,0.853 0.522,1.378 -1.648,3.656 -2.563,9.215 -2.573,9.271 -0.081,0.511 -0.525,0.874 -1.025,0.874 z"
       id="path3089"
       inkscape:connector-curvature="0" /><path
       d="m 10.085,26.364 c -0.2,0 -0.399,-0.056 -0.578,-0.174 C 9.454,26.153 4.012,22.548 0.753,21.605 0.2,21.444 -0.118,20.866 0.041,20.314 c 0.161,-0.552 0.743,-0.873 1.29,-0.711 3.568,1.034 9.098,4.697 9.332,4.852 0.478,0.319 0.608,0.965 0.289,1.444 -0.2,0.303 -0.531,0.465 -0.867,0.465 z"
       id="path3091"
       inkscape:connector-curvature="0" /><path
       d="M 8.291,35.87 C 8.185,35.87 8.077,35.854 7.971,35.819 7.939,35.81 4.751,34.812 1.091,34.976 0.528,34.994 0.027,34.558 0.003,33.983 -0.026,33.408 0.42,32.921 0.994,32.895 c 4.083,-0.191 7.475,0.896 7.619,0.943 0.547,0.177 0.846,0.764 0.669,1.312 -0.143,0.439 -0.552,0.72 -0.991,0.72 z"
       id="path3093"
       inkscape:connector-curvature="0" /><path
       d="m 1.921,47.592 c -0.48,0 -0.91,-0.331 -1.017,-0.817 -0.125,-0.562 0.232,-1.118 0.793,-1.242 3.973,-0.876 7.513,-0.385 7.664,-0.362 0.57,0.081 0.964,0.609 0.883,1.178 -0.082,0.57 -0.594,0.969 -1.18,0.884 -0.033,-0.006 -3.322,-0.459 -6.919,0.334 -0.076,0.017 -0.151,0.025 -0.224,0.025 z"
       id="path3095"
       inkscape:connector-curvature="0" /></g></svg>