<?xml version="1.0" encoding="utf-8"?>
<!-- Generator: Adobe Illustrator 16.0.4, SVG Export Plug-In . SVG Version: 6.00 Build 0)  -->
<!DOCTYPE svg PUBLIC "-//W3C//DTD SVG 1.1//EN" "http://www.w3.org/Graphics/SVG/1.1/DTD/svg11.dtd">
<svg version="1.1" id="Layer_1" xmlns="http://www.w3.org/2000/svg" xmlns:xlink="http://www.w3.org/1999/xlink" x="0px" y="0px"
	 width="32px" height="32px" viewBox="0 0 32 32" enable-background="new 0 0 32 32" xml:space="preserve">
<g id="Layer_12">
	<g>
		<path d="M26.422,11.284c0.025,1.109-0.445,2.649-1.169,4.161c-2.346,4.903-4.661,9.821-6.933,14.759
			c-0.883,1.917-3.016,2.319-4.322,1.116c-0.316-0.291-0.566-0.688-0.752-1.079c-2.471-5.212-5.026-10.386-7.348-15.664
			c-1.626-3.696-0.99-7.29,1.479-10.467c3.612-4.649,10.232-5.468,14.868-1.864C24.988,4.377,26.396,7.215,26.422,11.284z
			 M21.088,10.715c0.023-2.917-2.379-5.345-5.309-5.362c-2.928-0.018-5.34,2.371-5.362,5.31c-0.021,2.921,2.38,5.349,5.311,5.368
			C18.646,16.049,21.062,13.654,21.088,10.715z"/>
	</g>
</g>
</svg>
