<?xml version="1.0" encoding="utf-8"?>
<!-- Generator: Adobe Illustrator 16.0.4, SVG Export Plug-In . SVG Version: 6.00 Build 0)  -->
<!DOCTYPE svg PUBLIC "-//W3C//DTD SVG 1.1//EN" "http://www.w3.org/Graphics/SVG/1.1/DTD/svg11.dtd">
<svg version="1.1" id="Layer_1" xmlns="http://www.w3.org/2000/svg" xmlns:xlink="http://www.w3.org/1999/xlink" x="0px" y="0px"
	 width="32px" height="32px" viewBox="0 0 32 32" enable-background="new 0 0 32 32" xml:space="preserve">
<g id="Layer_2">
	<g id="Users">
		<path d="M0,12.69c0.083-0.199,0.148-0.408,0.252-0.596c0.345-0.617,0.875-1.003,1.58-1.014c1.812-0.028,3.623-0.012,5.436-0.012
			c0.018,0,0.037,0.012,0.079,0.026c-0.084,0.178-0.199,0.345-0.246,0.529c-0.118,0.501-0.288,1.01-0.295,1.518
			c-0.03,2.383-0.012,4.77-0.012,7.153c0,1.874,1.173,3.351,3.005,3.789c0.059,0.015,0.116,0.038,0.15,0.051
			c0,0.906,0.083,1.81-0.021,2.69c-0.109,0.945-0.95,1.555-1.899,1.558c-0.917,0-1.835-0.049-2.749,0.011
			c-1.248,0.082-2.214-0.949-2.169-2.149c0.058-1.572,0.014-3.146,0.014-4.718c0-0.123,0-0.246,0-0.416c-0.306,0-0.583,0-0.86,0
			c-1.212,0-1.811-0.424-2.222-1.562C0.035,19.529,0.014,19.52,0,19.505C0,17.232,0,14.963,0,12.69z"/>
		<path d="M20.122,22.172c0,0.163,0,0.285,0,0.406c0,1.949,0.002,3.896,0,5.844c0,1.445-1.017,2.459-2.455,2.459
			c-1.136,0.002-2.272,0.004-3.406,0c-1.334-0.003-2.372-1.042-2.376-2.381c-0.003-1.968,0-3.938,0-5.907c0-0.124,0-0.247,0-0.421
			c-0.42,0-0.823,0.002-1.223,0c-0.721-0.003-1.349-0.223-1.851-0.756c-0.408-0.438-0.636-0.947-0.636-1.551
			c-0.003-2.469-0.009-4.937,0-7.405c0.002-1.268,1.037-2.301,2.351-2.306c3.646-0.016,7.292-0.015,10.938-0.001
			c1.37,0.006,2.369,1.048,2.369,2.417c0,2.375,0,4.75,0,7.125c0,1.447-0.989,2.449-2.442,2.477
			C20.986,22.18,20.578,22.172,20.122,22.172z"/>
		<path d="M28.882,21.109c0,0.162,0,0.281,0,0.404c0,1.614,0,3.229-0.001,4.844c0,1.19-0.834,2.023-2.023,2.023
			c-0.969,0-1.936,0.002-2.903,0c-1.062-0.005-1.933-0.865-1.938-1.923c-0.007-0.74,0-1.479,0.004-2.22
			c0-0.02,0.006-0.041,0.018-0.088c0.673-0.113,1.309-0.354,1.85-0.795c0.941-0.77,1.454-1.752,1.454-2.979
			c0.002-2.146,0.003-4.293,0-6.438c-0.002-0.488,0.026-0.987-0.057-1.463c-0.081-0.473-0.288-0.923-0.445-1.401
			c0.065-0.003,0.164-0.013,0.265-0.013c1.592-0.001,3.188-0.002,4.779-0.001C31.186,11.066,32,11.883,32,13.191
			c0,1.938,0,3.875,0,5.812c0,1.257-0.832,2.095-2.09,2.106C29.58,21.111,29.25,21.109,28.882,21.109z"/>
		<path d="M16.012,0.5c2.289,0.002,4.114,1.835,4.11,4.134c-0.005,2.258-1.862,4.102-4.128,4.098
			c-2.265-0.003-4.109-1.851-4.109-4.114C11.883,2.327,13.715,0.498,16.012,0.5z"/>
		<path d="M3.125,6.41C3.126,4.485,4.643,2.999,6.6,3c1.897,0.002,3.396,1.532,3.396,3.462c-0.003,1.89-1.554,3.414-3.463,3.409
			C4.632,9.864,3.123,8.329,3.125,6.41z"/>
		<path d="M28.882,6.439c-0.003,1.909-1.528,3.432-3.437,3.432c-1.916,0-3.438-1.537-3.434-3.469
			c0.002-1.91,1.533-3.404,3.485-3.401C27.383,3.002,28.884,4.529,28.882,6.439z"/>
	</g>
</g>
</svg>
