<?xml version="1.0" encoding="utf-8"?>
<!-- Generator: Adobe Illustrator 16.0.4, SVG Export Plug-In . SVG Version: 6.00 Build 0)  -->
<!DOCTYPE svg PUBLIC "-//W3C//DTD SVG 1.1//EN" "http://www.w3.org/Graphics/SVG/1.1/DTD/svg11.dtd">
<svg version="1.1" xmlns="http://www.w3.org/2000/svg" xmlns:xlink="http://www.w3.org/1999/xlink" x="0px" y="0px" width="32px"
	 height="32px" viewBox="0 0 32 32" enable-background="new 0 0 32 32" xml:space="preserve">
<g id="Layer_1" display="none">
	<rect x="19.081" y="9.618" display="inline" fill="#333333" width="12.8" height="2.133"/>
	<polygon display="inline" fill="#333333" points="19.081,13.884 19.081,30.951 23.348,30.951 23.348,22.418 27.614,22.418 
		27.614,30.951 31.881,30.951 31.881,13.884 	"/>
	<path display="inline" fill="#333333" d="M0,1.048v29.866l17.066,0.037V1.084L0,1.048z M7.219,22.418H2.952v-4.267h4.267V22.418z
		 M7.219,16.018H2.952v-4.267h4.267V16.018z M7.219,9.618H2.952V5.351h4.267V9.618z M13.619,22.418H9.353v-4.267h4.267V22.418z
		 M13.619,16.018H9.353v-4.267h4.267V16.018z M13.619,9.618H9.353V5.351h4.267V9.618z"/>
</g>
<g id="Layer_2" display="none">
	<g id="Users" display="inline">
		<path fill-rule="evenodd" clip-rule="evenodd" fill="#333333" d="M0,12.69c0.083-0.199,0.148-0.408,0.252-0.596
			c0.345-0.617,0.875-1.003,1.58-1.014c1.812-0.028,3.623-0.012,5.436-0.012c0.018,0,0.037,0.012,0.079,0.026
			c-0.084,0.178-0.199,0.345-0.246,0.529c-0.118,0.501-0.288,1.01-0.295,1.518c-0.03,2.383-0.012,4.77-0.012,7.153
			c0,1.874,1.173,3.351,3.005,3.789c0.059,0.014,0.116,0.038,0.15,0.051c0,0.906,0.083,1.809-0.021,2.69
			c-0.109,0.945-0.95,1.555-1.899,1.558c-0.917,0-1.835-0.049-2.749,0.011c-1.248,0.081-2.214-0.95-2.169-2.151
			c0.058-1.572,0.014-3.145,0.014-4.717c0-0.123,0-0.245,0-0.416c-0.306,0-0.583,0-0.86,0c-1.212,0-1.811-0.423-2.222-1.562
			C0.035,19.529,0.014,19.52,0,19.505C0,17.233,0,14.963,0,12.69z"/>
		<path fill-rule="evenodd" clip-rule="evenodd" fill="#333333" d="M20.122,22.172c0,0.163,0,0.285,0,0.406
			c0,1.949,0.002,3.897,0,5.844c0,1.445-1.016,2.459-2.455,2.459c-1.136,0.002-2.272,0.004-3.406,0
			c-1.334-0.003-2.372-1.042-2.376-2.381c-0.003-1.968,0-3.938,0-5.907c0-0.124,0-0.247,0-0.421c-0.42,0-0.823,0.002-1.223,0
			c-0.721-0.003-1.349-0.223-1.851-0.756c-0.408-0.438-0.636-0.947-0.636-1.551c-0.003-2.468-0.009-4.937,0-7.405
			c0.002-1.268,1.037-2.301,2.351-2.306c3.646-0.016,7.292-0.015,10.938-0.001c1.37,0.006,2.369,1.048,2.369,2.417
			c0,2.375,0,4.75,0,7.125c0,1.447-0.989,2.449-2.443,2.477C20.986,22.18,20.578,22.172,20.122,22.172z"/>
		<path fill-rule="evenodd" clip-rule="evenodd" fill="#333333" d="M28.882,21.109c0,0.162,0,0.282,0,0.404
			c0,1.616,0,3.23-0.001,4.844c0,1.192-0.834,2.025-2.023,2.025c-0.97,0-1.936,0.002-2.905,0c-1.063-0.005-1.931-0.867-1.939-1.923
			c-0.006-0.74,0-1.479,0.003-2.219c0-0.02,0.006-0.041,0.018-0.087c0.673-0.115,1.308-0.354,1.85-0.795
			c0.941-0.77,1.454-1.752,1.454-2.979c0.002-2.146,0.003-4.293,0-6.438c-0.002-0.488,0.026-0.987-0.057-1.463
			c-0.081-0.473-0.288-0.923-0.445-1.401c0.065-0.003,0.164-0.013,0.264-0.013c1.593-0.001,3.187-0.002,4.78-0.001
			C31.186,11.066,32,11.883,32,13.191c0,1.938,0,3.876,0,5.812c0,1.257-0.832,2.094-2.09,2.106
			C29.58,21.112,29.25,21.109,28.882,21.109z"/>
		<path fill-rule="evenodd" clip-rule="evenodd" fill="#333333" d="M16.012,0.5c2.289,0.002,4.114,1.835,4.11,4.134
			c-0.005,2.258-1.862,4.102-4.128,4.098c-2.265-0.003-4.109-1.851-4.109-4.114C11.883,2.327,13.715,0.498,16.012,0.5z"/>
		<path fill-rule="evenodd" clip-rule="evenodd" fill="#333333" d="M3.125,6.41C3.126,4.485,4.643,2.999,6.6,3
			c1.897,0.002,3.396,1.532,3.396,3.462C9.993,8.352,8.442,9.876,6.533,9.871C4.632,9.864,3.123,8.329,3.125,6.41z"/>
		<path fill-rule="evenodd" clip-rule="evenodd" fill="#333333" d="M28.882,6.439c-0.003,1.909-1.529,3.432-3.436,3.432
			c-1.917,0-3.438-1.537-3.434-3.469c0.001-1.91,1.534-3.404,3.486-3.401C27.383,3.002,28.884,4.529,28.882,6.439z"/>
	</g>
</g>
<g id="Layer_3" display="none">
	<g display="inline">
		<polygon fill="#333333" points="17,14.086 17,9 13,9 13,9.114 13,11.542 13,19 23,19 23,14.021 		"/>
		<path id="schedule_1_" fill="#333333" d="M15.889,5.003c6.065,0,10.997,4.933,10.997,10.997s-4.932,10.997-10.997,10.997
			c-2.604,0-4.986-0.914-6.87-2.432l3.028-2.617L0.111,17.73l1.9,12.895l3.17-2.739C8.017,30.44,11.767,32,15.889,32
			c8.837,0,16-7.163,16-16c0-8.836-7.163-16-16-16C8.959,0,3.057,4.408,0.834,10.572l5.114,0.755
			C7.709,7.597,11.495,5.003,15.889,5.003z"/>
	</g>
</g>
<g id="Layer_4" display="none">
	<path display="inline" d="M27.08,15h4.768c-0.392-5-2.409-8.154-5.408-10.779l-2.688,4.067C25.529,10.008,26.736,12,27.08,15z"/>
	<path display="inline" d="M4.768,18H0c0.419,4,2.694,8.17,6.045,10.811l2.667-3.787C6.6,23.258,5.15,20,4.768,18z"/>
	<path display="inline" d="M31.848,18H27.08c-0.307,2-1.305,4.117-2.78,5.762l2.787,4.054C29.729,25.236,31.484,21,31.848,18z"/>
	<path display="inline" d="M15.924,27.269c-1.666,0-3.244-0.373-4.668-1.025l-2.691,3.948C10.77,31.341,13.27,32,15.924,32
		c3.261,0,6.294-0.985,8.826-2.668l-2.74-3.863C20.252,26.603,18.166,27.269,15.924,27.269z"/>
	<path display="inline" d="M15.924,4.732c1.963,0,3.809,0.507,5.417,1.393l2.665-3.91C21.631,0.817,18.874,0,15.924,0
		c-2.554,0-4.96,0.617-7.104,1.685l2.776,3.914C12.929,5.042,14.391,4.732,15.924,4.732z"/>
	<path display="inline" d="M9.001,7.378l-2.734-3.73C2.797,6.287,0.428,10,0,15h4.768C5.167,12,6.735,9.15,9.001,7.378z"/>
</g>
<g id="Layer_5" display="none">
	<g display="inline">
		<g>
			<path fill="#333333" d="M21.613,0H2v32h28.497V8.741L21.613,0z M21.472,3.608l4.934,4.853h-4.934V3.608z M27.542,27.871H6.044
				v-25h13.429v7.591h8.068V27.871z"/>
		</g>
	</g>
</g>
<g id="Layer_6" display="none">
	<g display="inline">
		<polygon fill="#333333" points="15.952,14.443 12.01,18.387 19.44,25.82 32,13.263 29.132,10.343 19.521,18.321 		"/>
		<polygon fill="#333333" points="27.042,8.822 27.042,4.034 23.952,1 0,1 0,31.035 27.042,31.035 27.042,21.763 25.039,23.766 
			25.039,29.031 2.003,29.031 2.003,3.003 23.134,3.003 25.039,4.875 25.039,10.485 		"/>
	</g>
</g>
<g id="Layer_7" display="none">
	<path id="Device_1_" display="inline" fill="#333333" d="M26.725,21.449h-0.002c-0.099,0-0.194,0.01-0.291,0.016l-9.971-9.972
		c-0.699-0.699-1.713-0.889-2.593-0.589l1.558-4.56c0.256-0.751-0.004-1.858-0.566-2.42l-3.257-3.26
		c-0.563-0.562-1.67-0.821-2.42-0.565L7.227,0.766C6.908,0.874,6.707,1.058,6.651,1.283C6.598,1.507,6.698,1.761,6.94,2l2.099,2.093
		c0.74,0.742,0.738,1.952-0.004,2.692l-2.249,2.25C6.428,9.393,5.95,9.589,5.444,9.589c-0.515,0-0.992-0.197-1.353-0.558L2.001,6.94
		C1.759,6.701,1.505,6.598,1.284,6.651C1.058,6.704,0.877,6.908,0.767,7.227L0.099,9.181c-0.256,0.755,0.004,1.862,0.564,2.422
		l3.261,3.259c0.562,0.562,1.668,0.82,2.417,0.565l4.566-1.558c-0.301,0.879-0.113,1.895,0.586,2.591l9.972,9.974
		c-0.005,0.094-0.015,0.192-0.015,0.291c0,2.914,2.359,5.275,5.273,5.275c2.915,0,5.275-2.361,5.275-5.275
		C31.998,23.81,29.638,21.449,26.725,21.449z M26.725,29.489c-1.526,0-2.765-1.24-2.765-2.765c0-0.738,0.287-1.435,0.81-1.955
		c0.522-0.521,1.216-0.808,1.955-0.808c1.523,0,2.765,1.237,2.765,2.763C29.489,28.249,28.248,29.489,26.725,29.489z"/>
</g>
<g id="Layer_8" display="none">
	<g display="inline">
		<path fill-rule="evenodd" clip-rule="evenodd" fill="#333333" d="M20.596,4.141c3.486,0,6.971-0.001,10.457,0
			c0.795,0,0.942,0.145,0.943,0.919c0.003,0.952,0.007,1.905-0.001,2.857C31.99,8.498,31.786,8.7,31.198,8.7
			c-7.086,0.002-14.17,0.002-21.254,0c-0.609,0-0.796-0.201-0.8-0.835c-0.004-0.953-0.004-1.905,0-2.857
			c0.002-0.702,0.168-0.866,0.883-0.866C13.549,4.14,17.072,4.141,20.596,4.141z"/>
		<path fill-rule="evenodd" clip-rule="evenodd" fill="#333333" d="M20.6,13.285c3.485,0,6.971-0.001,10.456,0.001
			c0.789,0,0.938,0.146,0.94,0.924c0.003,0.934,0.006,1.866-0.001,2.799c-0.004,0.638-0.188,0.836-0.801,0.836
			c-7.084,0.002-14.17,0.002-21.254,0c-0.593,0-0.791-0.198-0.794-0.782c-0.008-0.972-0.005-1.942-0.001-2.914
			c0.002-0.699,0.168-0.862,0.886-0.862C13.553,13.284,17.076,13.285,20.6,13.285z"/>
		<path fill-rule="evenodd" clip-rule="evenodd" fill="#333333" d="M20.57,26.989c-3.505,0-7.008,0-10.512,0
			c-0.752,0-0.913-0.159-0.916-0.895c-0.002-0.951-0.005-1.902,0.003-2.856c0.002-0.627,0.184-0.808,0.823-0.808
			c7.067-0.002,14.131-0.002,21.198,0c0.635,0,0.824,0.183,0.829,0.805c0.007,0.973,0.005,1.944,0,2.916
			c-0.004,0.66-0.183,0.838-0.854,0.838C27.618,26.992,24.094,26.989,20.57,26.989z"/>
		<path fill-rule="evenodd" clip-rule="evenodd" fill="#333333" d="M0.001,6.375C0.034,4.488,1.577,2.981,3.456,3
			c1.902,0.018,3.443,1.606,3.391,3.495C6.795,8.381,5.232,9.884,3.365,9.842C1.481,9.799-0.032,8.24,0.001,6.375z"/>
		<path fill-rule="evenodd" clip-rule="evenodd" fill="#333333" d="M3.43,12.144c1.87-0.007,3.412,1.531,3.419,3.412
			c0.008,1.87-1.534,3.425-3.4,3.431C1.567,18.994,0.025,17.479,0,15.603C-0.023,13.705,1.516,12.152,3.43,12.144z"/>
		<path fill-rule="evenodd" clip-rule="evenodd" fill="#333333" d="M3.424,21.287c1.87-0.011,3.413,1.524,3.425,3.406
			c0.012,1.869-1.526,3.427-3.395,3.438c-1.88,0.01-3.425-1.502-3.454-3.378C-0.028,22.855,1.51,21.3,3.424,21.287z"/>
	</g>
</g>
<g id="Layer_9" display="none">
	<g display="inline">
		<path fill-rule="evenodd" clip-rule="evenodd" fill="#333333" d="M16.058,4c4.778,0,9.556,0,14.334,0
			c1.235,0,1.604,0.367,1.605,1.596c0.001,1.275,0.006,2.551-0.001,3.826c-0.005,0.996-0.435,1.423-1.436,1.424
			c-9.708,0.001-19.416,0.001-29.124,0c-1-0.001-1.429-0.43-1.433-1.426c-0.004-1.332-0.004-2.665,0-3.997
			C0.007,4.43,0.438,4.002,1.438,4.001C6.312,3.999,11.185,4,16.058,4z M29.69,6.315c-2.299,0-4.552,0-6.789,0
			c0,0.772,0,1.503,0,2.224c2.285,0,4.524,0,6.789,0C29.69,7.789,29.69,7.073,29.69,6.315z"/>
		<path fill-rule="evenodd" clip-rule="evenodd" fill="#333333" d="M16.008,22.287c4.815,0,9.631-0.001,14.448,0
			c1.15,0,1.54,0.391,1.541,1.545c0.002,1.294,0.006,2.588-0.001,3.883c-0.006,0.989-0.44,1.416-1.441,1.416
			c-9.709,0.002-19.417,0.002-29.125,0c-0.995,0-1.423-0.434-1.427-1.432c-0.004-1.332-0.005-2.664,0-3.997
			c0.004-0.987,0.438-1.414,1.441-1.414C6.299,22.285,11.153,22.287,16.008,22.287z M18.31,26.814c3.823,0,7.6,0,11.361,0
			c0-0.774,0-1.505,0-2.223c-3.809,0-7.572,0-11.361,0C18.31,25.339,18.31,26.055,18.31,26.814z"/>
		<path fill-rule="evenodd" clip-rule="evenodd" fill="#333333" d="M16.004,13.144c4.816,0,9.632-0.001,14.448,0
			c1.154,0,1.544,0.39,1.545,1.541c0.001,1.295,0.006,2.59-0.001,3.884c-0.005,0.993-0.437,1.42-1.438,1.42
			c-9.708,0.002-19.416,0.002-29.124,0c-0.999,0-1.426-0.431-1.43-1.429c-0.004-1.332-0.005-2.665,0-3.997
			c0.004-0.991,0.435-1.418,1.438-1.418C6.296,13.142,11.15,13.144,16.004,13.144z M29.69,15.459c-6.108,0-12.171,0-18.217,0
			c0,0.772,0,1.502,0,2.222c6.094,0,12.142,0,18.217,0C29.69,16.932,29.69,16.215,29.69,15.459z"/>
		<path fill-rule="evenodd" clip-rule="evenodd" fill="#FFFFFF" d="M29.69,6.315c0,0.758,0,1.474,0,2.224c-2.265,0-4.504,0-6.789,0
			c0-0.721,0-1.451,0-2.224C25.139,6.315,27.392,6.315,29.69,6.315z"/>
		<path fill-rule="evenodd" clip-rule="evenodd" fill="#FFFFFF" d="M18.31,26.814c0-0.76,0-1.476,0-2.223c3.789,0,7.553,0,11.361,0
			c0,0.718,0,1.448,0,2.223C25.909,26.814,22.133,26.814,18.31,26.814z"/>
		<path fill-rule="evenodd" clip-rule="evenodd" fill="#FFFFFF" d="M29.69,15.459c0,0.756,0,1.473,0,2.222
			c-6.075,0-12.123,0-18.217,0c0-0.72,0-1.449,0-2.222C17.52,15.459,23.582,15.459,29.69,15.459z"/>
	</g>
</g>
<g id="Layer_10" display="none">
	<g display="inline">
		<path fill-rule="evenodd" clip-rule="evenodd" fill="#333333" d="M16.625,26.165c-0.156-0.083-0.321-0.146-0.457-0.248
			c-0.482-0.363-0.966-0.728-1.427-1.117c-0.249-0.212-0.449-0.19-0.759-0.105c-0.729,0.197-1.034,0.597-1.011,1.354
			c0.014,0.453-0.136,0.91-0.21,1.365c-0.07,0.434-0.292,0.64-0.761,0.626c-0.888-0.026-1.777-0.02-2.667-0.003
			c-0.456,0.01-0.692-0.18-0.75-0.632c-0.078-0.617-0.191-1.229-0.264-1.847c-0.04-0.328-0.176-0.487-0.486-0.659
			c-0.647-0.357-1.131-0.278-1.641,0.23c-0.323,0.324-0.731,0.562-1.1,0.841c-0.28,0.213-0.57,0.23-0.82-0.018
			C3.58,25.265,2.904,24.56,2.222,23.86c-0.35-0.359-0.312-0.7,0.009-1.072c0.371-0.43,0.696-0.9,1.06-1.337
			c0.182-0.218,0.157-0.388,0.084-0.66c-0.233-0.863-0.75-1.232-1.63-1.22c-0.402,0.006-0.805-0.125-1.209-0.182
			c-0.358-0.051-0.534-0.249-0.534-0.608c0-0.961,0.003-1.92-0.001-2.881c-0.001-0.43,0.258-0.584,0.635-0.64
			c0.65-0.095,1.297-0.213,1.949-0.291c0.285-0.035,0.386-0.187,0.531-0.416c0.448-0.707,0.285-1.264-0.269-1.812
			c-0.276-0.273-0.495-0.604-0.743-0.905c-0.25-0.304-0.285-0.613,0.002-0.905c0.67-0.685,1.344-1.367,2.027-2.038
			c0.385-0.377,0.764-0.345,1.17,0.017c0.423,0.378,0.874,0.731,1.347,1.044c0.165,0.108,0.436,0.099,0.651,0.075
			c0.186-0.021,0.354-0.168,0.542-0.21c0.315-0.07,0.416-0.268,0.451-0.562c0.076-0.635,0.172-1.267,0.266-1.899
			c0.067-0.451,0.292-0.678,0.791-0.66c0.87,0.031,1.743,0.028,2.613,0.001c0.518-0.016,0.743,0.214,0.802,0.703
			c0.074,0.617,0.171,1.232,0.262,1.846c0.088,0.593,1.176,1.049,1.656,0.694c0.514-0.381,1.025-0.767,1.532-1.157
			c0.296-0.229,0.594-0.253,0.864,0.013c0.669,0.662,1.322,1.34,1.985,2.009c0.401,0.406,0.368,0.782-0.01,1.201
			c-0.356,0.394-0.649,0.846-0.99,1.255c-0.198,0.238-0.148,0.439-0.078,0.72c0.207,0.834,0.706,1.177,1.545,1.171
			c0.404-0.003,0.806,0.131,1.211,0.178c0.41,0.048,0.595,0.262,0.593,0.67c-0.005,0.924-0.009,1.849,0.002,2.773
			c0.004,0.441-0.218,0.644-0.631,0.703c-0.649,0.093-1.298,0.207-1.949,0.29c-0.273,0.035-0.391,0.167-0.536,0.405
			c-0.425,0.704-0.311,1.265,0.261,1.813c0.292,0.281,0.568,0.604,0.759,0.957c0.111,0.204,0.156,0.612,0.032,0.75
			c-0.714,0.786-1.482,1.523-2.243,2.269C16.934,26.054,16.782,26.089,16.625,26.165z M14.934,17.387
			c0.018-2.335-1.901-4.273-4.248-4.288c-2.341-0.015-4.274,1.9-4.288,4.248c-0.014,2.341,1.898,4.274,4.248,4.293
			C12.978,21.658,14.916,19.737,14.934,17.387z"/>
		<path fill-rule="evenodd" clip-rule="evenodd" fill="#333333" d="M22.163,11.418c-0.02-0.333-0.573-0.914-0.887-0.959
			c-0.544-0.08-1.087-0.162-1.631-0.246c-0.302-0.046-0.465-0.186-0.448-0.532c0.026-0.568,0.023-1.138,0.001-1.706
			c-0.013-0.313,0.121-0.465,0.405-0.513c0.491-0.083,0.979-0.185,1.474-0.226c0.404-0.033,0.669-0.16,0.877-0.546
			c0.173-0.322,0.186-0.554,0.037-0.875c-0.229-0.497-0.423-1.016-0.576-1.541c-0.042-0.14,0.067-0.414,0.193-0.497
			c0.502-0.333,1.045-0.605,1.559-0.92c0.273-0.167,0.461-0.094,0.643,0.128c0.291,0.358,0.629,0.687,0.872,1.075
			c0.271,0.433,0.613,0.624,1.097,0.508c0.2-0.047,0.422-0.146,0.557-0.292c0.373-0.403,0.716-0.837,1.05-1.274
			c0.199-0.261,0.396-0.306,0.679-0.135c0.501,0.304,1.012,0.591,1.525,0.874c0.242,0.133,0.323,0.293,0.213,0.564
			c-0.182,0.442-0.324,0.901-0.509,1.342c-0.397,0.946-0.067,1.496,0.968,1.594C32.002,7.405,32.002,7.405,32,9.12
			c0,1.063,0,1.063-1.041,1.208c-0.247,0.035-0.499,0.123-0.736,0.095c-0.667-0.081-0.896,0.392-1.122,0.851
			c-0.054,0.11,0.012,0.301,0.063,0.439c0.196,0.532,0.401,1.061,0.62,1.585c0.124,0.298,0.071,0.49-0.229,0.647
			c-0.519,0.272-1.007,0.602-1.534,0.854c-0.149,0.071-0.461,0.028-0.574-0.086c-0.373-0.376-0.699-0.802-1.026-1.222
			c-0.447-0.574-1.18-0.583-1.619-0.021c-0.327,0.42-0.677,0.823-1.01,1.239c-0.188,0.234-0.381,0.262-0.643,0.099
			c-0.497-0.309-1.006-0.6-1.522-0.877c-0.277-0.149-0.325-0.33-0.21-0.609c0.223-0.541,0.428-1.088,0.641-1.633
			C22.096,11.59,22.134,11.492,22.163,11.418z M27.736,8.815c-0.007-1.156-0.997-2.128-2.155-2.118
			c-1.155,0.01-2.127,1.003-2.113,2.16c0.015,1.171,0.987,2.125,2.156,2.113C26.791,10.96,27.743,9.987,27.736,8.815z"/>
		<path fill-rule="evenodd" clip-rule="evenodd" fill="#FFFFFF" d="M14.934,17.387c-0.019,2.351-1.956,4.271-4.288,4.253
			c-2.35-0.019-4.262-1.952-4.248-4.293c0.014-2.348,1.947-4.263,4.288-4.248C13.033,13.114,14.952,15.051,14.934,17.387z"/>
		<path fill-rule="evenodd" clip-rule="evenodd" fill="#FFFFFF" d="M27.736,8.815c0.007,1.172-0.945,2.145-2.112,2.156
			c-1.169,0.011-2.142-0.942-2.156-2.113c-0.014-1.157,0.958-2.15,2.113-2.16C26.739,6.688,27.729,7.66,27.736,8.815z"/>
	</g>
</g>
<g id="Layer_11" display="none">
	<path display="inline" fill-rule="evenodd" clip-rule="evenodd" fill="#333333" d="M15.958,6
		c6.029,0.213,10.819,2.778,14.532,7.437c0.438,0.549,0.82,1.147,1.18,1.752c0.483,0.815,0.418,1.659-0.079,2.438
		c-3.164,4.943-7.602,8.027-13.441,8.84c-4.981,0.691-9.409-0.82-13.344-3.873c-1.719-1.332-3.133-2.943-4.312-4.77
		c-0.651-1.012-0.664-1.981-0.001-2.986c3.135-4.749,7.463-7.692,13.101-8.632C14.379,6.076,15.185,6.065,15.958,6z M22.922,10.029
		c2.026,3.891,0.949,7.848-1.855,10.192c-2.635,2.203-6.555,2.457-9.427,0.537c-1.723-1.15-2.927-2.715-3.424-4.756
		C7.721,13.967,8,12.014,9.055,10.024c-2.947,1.544-5.111,3.669-6.793,6.296c3.376,5.318,8.77,8.332,14.607,7.984
		c5.681-0.338,9.728-3.436,12.863-7.949C28,13.677,25.848,11.558,22.922,10.029z M15.721,8.616c-1.625,0.08-2.84,0.755-3.834,1.865
		c-0.876,0.976-1.308,2.131-1.339,3.435c-0.013,0.545,0.303,0.918,0.774,0.963c0.484,0.045,0.831-0.247,0.936-0.795
		c0.028-0.149,0.006-0.314,0.06-0.452c0.242-0.629,0.407-1.316,0.778-1.86c0.605-0.888,1.521-1.342,2.619-1.416
		c0.806-0.055,1.179-0.42,1.105-1.002C16.752,8.813,16.334,8.562,15.721,8.616z"/>
</g>
<g id="Layer_12" display="none">
	<g display="inline">
		<path fill-rule="evenodd" clip-rule="evenodd" d="M26.422,11.284c0.026,1.109-0.445,2.649-1.169,4.161
			c-2.346,4.902-4.661,9.821-6.933,14.759c-0.882,1.917-3.016,2.319-4.322,1.116c-0.316-0.291-0.566-0.688-0.752-1.079
			c-2.471-5.212-5.026-10.386-7.348-15.664c-1.626-3.696-0.99-7.29,1.479-10.467c3.612-4.649,10.232-5.468,14.868-1.864
			C24.988,4.377,26.397,7.215,26.422,11.284z M21.088,10.715c0.024-2.917-2.379-5.345-5.309-5.362
			c-2.928-0.018-5.34,2.371-5.362,5.31c-0.021,2.921,2.38,5.349,5.311,5.368C18.647,16.049,21.063,13.654,21.088,10.715z"/>
	</g>
</g>
<g id="Layer_13" display="none">
	<g display="inline">
		<path fill-rule="evenodd" clip-rule="evenodd" d="M7.446,2.309c1.539,0,3.077-0.005,4.615,0.001
			c1.67,0.006,2.696,1.016,2.702,2.669c0.009,2.317,0.009,4.635,0,6.952c-0.005,1.648-1.037,2.667-2.702,2.67
			c-3.118,0.005-6.235,0.005-9.353,0c-1.665-0.003-2.696-1.02-2.703-2.67c-0.008-2.317-0.008-4.635,0-6.953
			C0.013,3.325,1.04,2.315,2.709,2.31C4.288,2.304,5.867,2.309,7.446,2.309z"/>
		<path fill-rule="evenodd" clip-rule="evenodd" d="M24.602,2.309c1.58,0,3.159-0.008,4.738,0.001
			c1.619,0.009,2.646,1.035,2.652,2.657c0.009,2.338,0.011,4.676,0,7.014c-0.008,1.575-1.051,2.614-2.628,2.619
			c-3.159,0.009-6.317,0.008-9.476,0c-1.615-0.004-2.647-1.039-2.653-2.657c-0.009-2.338-0.011-4.676,0.001-7.015
			c0.007-1.58,1.045-2.608,2.628-2.618C21.443,2.301,23.022,2.309,24.602,2.309z"/>
		<path fill-rule="evenodd" clip-rule="evenodd" d="M7.382,17.076c1.559,0,3.117-0.004,4.676,0.001
			c1.694,0.007,2.702,1.021,2.707,2.728c0.006,2.297,0.008,4.594-0.001,6.891c-0.005,1.65-1.036,2.671-2.699,2.674
			c-3.117,0.005-6.234,0.005-9.352,0c-1.69-0.003-2.704-1.026-2.708-2.728c-0.004-2.276-0.005-4.554,0-6.83
			c0.004-1.734,1.014-2.73,2.762-2.734C4.305,17.073,5.844,17.076,7.382,17.076z"/>
		<path fill-rule="evenodd" clip-rule="evenodd" d="M24.607,17.076c1.579,0,3.158-0.007,4.737,0.002
			c1.617,0.01,2.642,1.037,2.647,2.661c0.009,2.318,0.008,4.636,0.001,6.953c-0.006,1.651-1.036,2.674-2.696,2.677
			c-3.118,0.005-6.235,0.005-9.353,0c-1.691-0.003-2.706-1.024-2.71-2.726c-0.006-2.297-0.008-4.594,0.001-6.891
			c0.006-1.654,1.032-2.668,2.696-2.675C21.49,17.072,23.049,17.076,24.607,17.076z"/>
	</g>
</g>
<g id="Layer_14" display="none">
	<g display="inline">
		<path fill-rule="evenodd" clip-rule="evenodd" d="M13.689,25.151c0-2.303,0-4.543,0-6.827c-2.252,0-4.507,0-6.836,0
			c0,0.653-0.008,1.313,0.002,1.972c0.008,0.578-0.157,1.057-0.723,1.309c-0.589,0.262-1.028-0.035-1.424-0.428
			c-1.39-1.387-2.78-2.771-4.162-4.165c-0.724-0.729-0.728-1.292-0.012-2.015c1.381-1.394,2.772-2.778,4.162-4.165
			c0.396-0.395,0.831-0.695,1.422-0.443c0.597,0.253,0.75,0.756,0.737,1.354c-0.013,0.627-0.003,1.255-0.003,1.929
			c2.279,0,4.533,0,6.827,0c0-2.25,0-4.505,0-6.826c-0.669,0-1.33-0.007-1.99,0.002c-0.582,0.008-1.054-0.168-1.299-0.735
			c-0.244-0.565,0.023-0.996,0.405-1.379c1.412-1.417,2.822-2.837,4.245-4.242c0.675-0.666,1.255-0.661,1.935,0.01
			c1.423,1.406,2.833,2.825,4.246,4.244c0.383,0.385,0.637,0.824,0.386,1.384c-0.251,0.564-0.729,0.729-1.309,0.719
			c-0.646-0.011-1.29-0.002-1.974-0.002c0,2.292,0,4.546,0,6.837c2.25,0,4.49,0,6.826,0c0-0.624,0.013-1.262-0.002-1.9
			c-0.016-0.618,0.126-1.145,0.753-1.4c0.622-0.253,1.055,0.096,1.46,0.501c1.347,1.348,2.696,2.693,4.041,4.042
			c0.796,0.8,0.797,1.342,0.003,2.14c-1.344,1.351-2.692,2.695-4.04,4.042c-0.403,0.402-0.831,0.762-1.457,0.51
			c-0.657-0.268-0.776-0.82-0.76-1.453c0.016-0.605,0.004-1.213,0.004-1.851c-2.302,0-4.557,0-6.839,0c0,2.267,0,4.507,0,6.839
			c0.638,0,1.276,0.012,1.916-0.004c0.594-0.014,1.107,0.117,1.374,0.707c0.275,0.613-0.046,1.061-0.455,1.469
			c-1.374,1.375-2.745,2.752-4.124,4.121c-0.748,0.742-1.302,0.738-2.056-0.012c-1.378-1.369-2.751-2.746-4.124-4.121
			c-0.393-0.393-0.708-0.826-0.46-1.42c0.249-0.596,0.748-0.758,1.35-0.744C12.376,25.163,13.019,25.151,13.689,25.151z"/>
	</g>
</g>
<g id="Layer_15" display="none">
	<g display="inline">
		<path d="M16.051,4c-4.418,0-8,3.583-8,8c0,4,4,8.062,4,12h7.999c0-4.063,4.001-8,4.001-12C24.051,7.582,20.47,4,16.051,4z
			 M20.275,17.057c-0.797,1.584-1.61,3.209-1.997,4.942h-4.466c-0.385-1.681-1.182-3.28-1.961-4.843
			c-0.926-1.862-1.801-3.62-1.801-5.156c0-3.309,2.691-6,6-6s5.999,2.691,5.999,6C22.05,13.519,21.188,15.238,20.275,17.057z
			 M20.05,29c0,0.552-0.446,0.999-0.999,0.999h-0.184C18.455,31.163,17.354,32,16.051,32c-1.305,0-2.405-0.837-2.816-2.001H13.05
			c-0.552,0-1-0.447-1-0.999c0-0.553,0.447-1,1-1h6C19.604,28,20.05,28.447,20.05,29z M20.05,26c0,0.553-0.446,1-0.999,1h-6
			c-0.552,0-1-0.447-1-1s0.447-1,1-1h6C19.604,25,20.05,25.447,20.05,26z M6.158,5.133l1.801,1.041
			C7.568,6.715,7.23,7.289,6.953,7.902L5.158,6.867L6.158,5.133z M16.051,2c-0.344,0-0.667,0.066-1,0.101V0h1.999v2.101
			C16.717,2.066,16.395,2,16.051,2z M10.225,3.908L9.184,2.107l1.734-1l1.035,1.795C11.34,3.179,10.766,3.517,10.225,3.908z
			 M25.151,7.902c-0.279-0.613-0.618-1.187-1.009-1.728l1.801-1.041l1,1.734L25.151,7.902z M21.878,3.906
			c-0.54-0.389-1.116-0.727-1.729-1.004l1.036-1.795l1.729,1L21.878,3.906z M6.156,13H4.051v-2h2.102
			c-0.035,0.333-0.102,0.656-0.102,1C6.051,12.34,6.117,12.668,6.156,13z M28.05,11v2h-2.104c0.039-0.332,0.104-0.66,0.104-1
			c0-0.344-0.065-0.667-0.101-1H28.05z M25.128,16.085l1.815,1.047l-1,1.732l-1.636-0.946
			C24.602,17.316,24.874,16.707,25.128,16.085z M6.967,16.089c0.248,0.622,0.522,1.235,0.814,1.84l-1.624,0.936l-1-1.732
			L6.967,16.089z"/>
	</g>
</g>
<g id="Layer_16" display="none">
	<g display="inline">
		<path fill-rule="evenodd" clip-rule="evenodd" d="M16.035,30.999c-4.503,0-9.006,0.002-13.509-0.001
			c-1.184-0.002-1.992-0.529-2.385-1.522c-0.304-0.768-0.078-1.449,0.293-2.128c1.694-3.092,3.377-6.191,5.066-9.286
			c2.784-5.104,5.572-10.205,8.352-15.311c0.38-0.7,0.865-1.258,1.679-1.433c0.906-0.193,1.655,0.09,2.244,0.792
			c0.158,0.188,0.288,0.404,0.405,0.621c4.482,8.215,8.964,16.431,13.44,24.649c0.795,1.458,0.304,3-1.122,3.469
			c-0.353,0.115-0.749,0.144-1.125,0.144C24.926,31.003,20.48,30.999,16.035,30.999z M16.017,10.393
			c-0.59,0-1.181-0.009-1.771,0.002c-0.602,0.012-0.825,0.264-0.802,0.853c0.097,2.509,0.194,5.019,0.287,7.529
			c0.023,0.642,0.139,0.777,0.773,0.784c0.99,0.01,1.981,0.007,2.971,0c0.671-0.006,0.798-0.135,0.824-0.799
			c0.101-2.529,0.202-5.058,0.302-7.586c0.02-0.512-0.216-0.766-0.755-0.779C17.236,10.381,16.626,10.393,16.017,10.393z
			 M18.315,24.195c0-0.552,0.005-1.104-0.002-1.658c-0.006-0.463-0.241-0.699-0.714-0.697c-1.048,0.003-2.097,0.005-3.145,0
			c-0.469-0.002-0.718,0.223-0.721,0.688c-0.007,1.067-0.007,2.136,0,3.203c0.003,0.46,0.239,0.702,0.712,0.7
			c1.048-0.003,2.097-0.003,3.146,0c0.506,0.002,0.725-0.266,0.724-0.749C18.315,25.188,18.315,24.692,18.315,24.195z"/>
	</g>
</g>
<g id="Layer_17" display="none">
	<g display="inline">
		<path d="M12.974,32c-22.748-13.102,5.831-19.96-1.587-32C33.354,10.377,13.84,20.977,12.974,32z"/>
		<path d="M16.519,31.267c-1.363-3.776,7.827-11.53,6.755-16.941C33.187,23.666,19.029,31.267,16.519,31.267z"/>
	</g>
</g>
<g id="Layer_18" display="none">
	<path display="inline" d="M14.874,0c0,0-22.458,32,0.367,32C39.686,32,14.874,0,14.874,0z M16.624,19.203
		c-10.385,0-0.167-14.56-0.167-14.56S27.746,19.203,16.624,19.203z"/>
</g>
<g id="Layer_19" display="none">
	<polygon display="inline" points="20.8,0 6.498,19.317 15.241,18.873 10.006,32 26.942,13.111 15.792,13.92 	"/>
</g>
<g id="Layer_20" display="none">
	<g display="inline">
		<path fill-rule="evenodd" clip-rule="evenodd" d="M15.942,3.058c4.283,0,8.568-0.001,12.851,0c2.063,0,3.205,1.149,3.206,3.226
			c0.001,6.227,0.001,12.453,0,18.68c-0.001,2.074-1.146,3.229-3.203,3.229c-8.53,0.001-17.061,0.001-25.591,0
			c-2.058,0-3.204-1.157-3.204-3.228C0,18.737,0,12.512,0,6.285c0-2.081,1.136-3.227,3.202-3.227
			C7.449,3.057,11.695,3.058,15.942,3.058z M16.048,9.905c-4.265,0-8.529-0.001-12.793,0c-0.835,0-0.973,0.133-0.973,0.946
			c-0.001,4.703-0.001,9.404,0,14.107c0,0.826,0.133,0.96,0.962,0.96c8.51,0,17.019,0,25.529,0c0.807-0.001,0.945-0.145,0.945-0.979
			c0.001-4.702,0.001-9.404,0-14.106c0-0.78-0.148-0.928-0.934-0.928C24.538,9.904,20.293,9.905,16.048,9.905z"/>
		<path fill-rule="evenodd" clip-rule="evenodd" d="M18.256,14.477c-2.742,0-5.484,0.001-8.227-0.001
			c-0.711,0-0.877-0.168-0.885-0.866c-0.015-1.408-0.015-1.408,1.371-1.408c5.294,0,10.588,0,15.883,0
			c0.908,0,1.026,0.118,1.028,1.009c0,0.152,0.002,0.305,0,0.457c-0.014,0.624-0.194,0.806-0.829,0.807
			C23.817,14.479,21.036,14.477,18.256,14.477z"/>
		<path fill-rule="evenodd" clip-rule="evenodd" d="M18.257,19.048c-2.742,0-5.484,0.001-8.227,0
			c-0.711-0.001-0.878-0.169-0.886-0.866c-0.015-1.408-0.015-1.408,1.371-1.408c5.294,0,10.589,0,15.883,0
			c0.909,0,1.027,0.117,1.029,1.009c0,0.152,0.002,0.305,0,0.456c-0.013,0.623-0.194,0.809-0.828,0.809
			C23.818,19.051,21.037,19.048,18.257,19.048z"/>
		<path fill-rule="evenodd" clip-rule="evenodd" d="M18.254,23.62c-2.742,0-5.484,0.001-8.227,0
			c-0.709-0.001-0.875-0.169-0.883-0.868c-0.015-1.406-0.015-1.406,1.373-1.406c5.313,0,10.627,0,15.94,0
			c0.829,0,0.966,0.137,0.97,0.954c0.001,0.172,0.003,0.343-0.001,0.515c-0.013,0.62-0.195,0.805-0.831,0.805
			C23.814,23.622,21.034,23.62,18.254,23.62z"/>
		<path fill-rule="evenodd" clip-rule="evenodd" d="M5.695,14.477c-1.054,0-1.123-0.071-1.123-1.141
			c0-1.088,0.052-1.135,1.242-1.134c0.962,0.001,1.04,0.088,1.039,1.168C6.853,14.416,6.789,14.477,5.695,14.477z"/>
		<path fill-rule="evenodd" clip-rule="evenodd" d="M5.741,19.048c-1.13,0-1.168-0.039-1.168-1.209c0-0.989,0.083-1.065,1.14-1.065
			c1.085,0,1.142,0.059,1.141,1.181C6.853,18.971,6.773,19.048,5.741,19.048z"/>
		<path fill-rule="evenodd" clip-rule="evenodd" d="M5.686,23.62c-1.032,0-1.113-0.08-1.113-1.093c0-1.139,0.043-1.182,1.195-1.182
			c1.019,0.001,1.086,0.073,1.086,1.179C6.853,23.556,6.783,23.62,5.686,23.62z"/>
	</g>
</g>
<g id="Layer_21" display="none">
	<path display="inline" fill-rule="evenodd" clip-rule="evenodd" d="M24.87,22.439c0.234,0.877,0.451,1.697,0.674,2.518
		c0.088,0.327,0.074,0.642-0.105,0.934c-0.24,0.387-0.599,0.571-1.048,0.531c-0.494-0.042-0.847-0.313-0.979-0.79
		c-0.427-1.545-0.831-3.097-1.249-4.646c-0.019-0.069-0.068-0.15-0.128-0.186c-1.554-0.901-3.11-1.796-4.666-2.692
		c-0.013-0.008-0.031-0.006-0.073-0.013c-0.006,0.07-0.018,0.138-0.018,0.206c-0.001,1.724,0.005,3.446-0.008,5.168
		c-0.002,0.214,0.136,0.28,0.245,0.39c0.808,0.81,1.615,1.618,2.423,2.425c0.259,0.258,0.519,0.513,0.774,0.772
		c0.497,0.503,0.52,1.173,0.059,1.638c-0.459,0.462-1.142,0.443-1.639-0.05c-0.54-0.537-1.077-1.078-1.616-1.617
		c-0.062-0.062-0.128-0.119-0.226-0.209c-0.006,0.129-0.013,0.217-0.013,0.303c-0.001,1.242,0,2.484-0.001,3.727
		c-0.001,0.651-0.484,1.15-1.113,1.152c-0.625,0.002-1.114-0.499-1.115-1.15c-0.002-1.284,0-2.568,0-3.853c0-0.088,0-0.178,0-0.314
		c-0.085,0.072-0.141,0.113-0.189,0.162c-0.616,0.613-1.223,1.236-1.848,1.841c-0.617,0.598-1.6,0.372-1.859-0.416
		c-0.141-0.431-0.058-0.823,0.261-1.146c1.097-1.104,2.185-2.22,3.314-3.291c0.262-0.248,0.33-0.469,0.327-0.795
		c-0.013-1.566-0.005-3.132-0.005-4.696c0-0.092,0-0.182,0-0.297c-0.069,0.027-0.123,0.04-0.169,0.067
		c-1.514,0.871-3.025,1.746-4.542,2.612c-0.188,0.108-0.292,0.225-0.349,0.454c-0.306,1.227-0.645,2.445-0.973,3.667
		c-0.075,0.279-0.143,0.561-0.23,0.837c-0.182,0.577-0.791,0.901-1.362,0.736c-0.586-0.168-0.932-0.738-0.784-1.331
		c0.194-0.777,0.41-1.551,0.615-2.326c0.02-0.076,0.035-0.153,0.065-0.292c-0.547,0.314-1.04,0.598-1.533,0.882
		c-0.646,0.372-1.29,0.745-1.937,1.114c-0.588,0.337-1.268,0.175-1.578-0.37c-0.326-0.573-0.133-1.224,0.469-1.571
		c1.096-0.633,2.194-1.264,3.292-1.896c0.084-0.048,0.166-0.1,0.294-0.179c-0.673-0.181-1.293-0.349-1.913-0.515
		c-0.263-0.07-0.528-0.136-0.791-0.208c-0.663-0.182-1.027-0.756-0.868-1.369c0.164-0.637,0.754-0.976,1.428-0.797
		c1.495,0.394,2.993,0.775,4.475,1.213c0.323,0.096,0.529,0.042,0.786-0.107c1.416-0.825,2.839-1.64,4.258-2.457
		c0.043-0.024,0.083-0.052,0.149-0.092c-0.063-0.045-0.109-0.085-0.161-0.115c-1.563-0.902-3.125-1.805-4.692-2.698
		c-0.092-0.052-0.236-0.063-0.341-0.036c-1.527,0.399-3.051,0.813-4.578,1.212c-0.635,0.166-1.208-0.187-1.372-0.818
		c-0.151-0.581,0.199-1.166,0.812-1.335c0.772-0.213,1.548-0.419,2.322-0.628c0.068-0.019,0.134-0.042,0.249-0.077
		c-0.716-0.414-1.389-0.802-2.061-1.19c-0.473-0.273-0.949-0.542-1.419-0.82c-0.587-0.349-0.774-1.007-0.45-1.558
		c0.324-0.552,0.991-0.708,1.579-0.37c1.112,0.64,2.223,1.281,3.334,1.921c0.07,0.041,0.143,0.077,0.263,0.141
		C7.272,9.505,7.224,9.31,7.171,9.116C6.985,8.421,6.793,7.728,6.61,7.032C6.476,6.52,6.638,6.047,7.028,5.776
		c0.396-0.275,0.918-0.293,1.297,0.011C8.502,5.93,8.672,6.144,8.732,6.357c0.438,1.551,0.856,3.108,1.253,4.669
		c0.061,0.236,0.16,0.356,0.357,0.469c1.467,0.835,2.928,1.683,4.39,2.526c0.077,0.044,0.157,0.083,0.275,0.146
		c0-0.127,0-0.215,0-0.302c0-1.673-0.004-3.347,0.004-5.019c0.001-0.26-0.053-0.439-0.264-0.632
		c-0.676-0.622-1.312-1.286-1.964-1.935c-0.469-0.467-0.944-0.93-1.403-1.407c-0.594-0.618-0.327-1.627,0.49-1.849
		c0.432-0.117,0.816-0.01,1.138,0.314c0.583,0.587,1.17,1.172,1.756,1.756c0.062,0.062,0.129,0.12,0.229,0.213
		C15,5.177,15.007,5.09,15.008,5.004c0-1.259,0-2.518,0.001-3.777c0-0.43,0.136-0.798,0.517-1.039
		c0.366-0.231,0.749-0.251,1.131-0.05c0.374,0.197,0.58,0.514,0.588,0.939c0.011,0.438,0.003,0.878,0.003,1.317
		c0.001,0.82,0.001,1.64,0.001,2.459c0,0.088,0,0.176,0,0.333c0.114-0.103,0.181-0.159,0.241-0.219
		c0.539-0.538,1.077-1.078,1.616-1.616c0.474-0.473,1.179-0.5,1.625-0.065c0.459,0.448,0.449,1.155-0.034,1.639
		c-1.118,1.118-2.242,2.232-3.359,3.351c-0.047,0.046-0.084,0.126-0.084,0.19c-0.005,1.847-0.004,3.694-0.002,5.541
		c0,0.03,0.014,0.061,0.028,0.118c0.338-0.194,0.658-0.377,0.979-0.562c1.227-0.707,2.451-1.415,3.68-2.117
		c0.143-0.081,0.191-0.174,0.223-0.341c0.084-0.454,0.217-0.898,0.337-1.345c0.299-1.118,0.588-2.238,0.902-3.352
		c0.217-0.764,1.101-1.053,1.74-0.589c0.364,0.265,0.526,0.726,0.405,1.194c-0.225,0.855-0.456,1.708-0.684,2.563
		c-0.013,0.046-0.021,0.093-0.042,0.195c0.113-0.06,0.188-0.097,0.261-0.139c1.119-0.644,2.236-1.292,3.357-1.932
		c0.712-0.406,1.535-0.032,1.692,0.759c0.089,0.447-0.132,0.914-0.571,1.17c-1.009,0.588-2.021,1.167-3.031,1.75
		c-0.143,0.082-0.283,0.164-0.479,0.278c0.63,0.169,1.199,0.321,1.769,0.474c0.287,0.077,0.576,0.149,0.86,0.236
		c0.588,0.18,0.91,0.755,0.765,1.348c-0.143,0.573-0.733,0.952-1.322,0.799c-1.561-0.402-3.115-0.829-4.674-1.242
		c-0.07-0.019-0.166-0.018-0.226,0.016c-1.588,0.909-3.171,1.824-4.756,2.738c-0.021,0.012-0.036,0.033-0.083,0.075
		c0.271,0.158,0.532,0.311,0.793,0.461c1.227,0.707,2.454,1.41,3.677,2.123c0.207,0.121,0.371,0.167,0.631,0.072
		c0.565-0.204,1.16-0.325,1.742-0.481c0.928-0.247,1.854-0.496,2.78-0.741c0.674-0.178,1.288,0.154,1.444,0.773
		c0.159,0.635-0.2,1.198-0.878,1.381c-0.876,0.235-1.753,0.472-2.687,0.724c0.119,0.075,0.197,0.129,0.277,0.175
		c1.118,0.646,2.238,1.288,3.354,1.938c0.409,0.237,0.626,0.678,0.562,1.105c-0.07,0.472-0.39,0.842-0.833,0.947
		c-0.349,0.085-0.666-0.005-0.973-0.184c-1.043-0.61-2.092-1.211-3.138-1.814C25.066,22.542,24.992,22.506,24.87,22.439z"/>
</g>
<g id="Layer_22">
	<g id="RECYCLE_1_">
		<g>
			<g>
				<path d="M31.883,19.477c0,0-1.646,1.893-2.744,1.893s-7.461,0-7.461,0v-3.555l-3.585,7.075L21.678,32v-3.674h3.781
					C25.459,28.326,28.616,29.216,31.883,19.477z"/>
				<path d="M22.015,12l6.014-3.471l3.57,6.268c0,0,1.43,2.78-1.108,4.572c-2.462,1.742-4.708-1.021-4.708-1.021L22.015,12z"/>
			</g>
			<g>
				<path d="M5.727,26.775c0,0-0.73-2.229-0.269-3.329c0.467-1.091,3.738-6.448,3.738-6.448l3.078,1.787L7.95,12.12L0,11.666
					l3.175,1.844L1.29,16.78C1.29,16.78-1.173,19.174,5.727,26.775z"/>
				<path d="M17.526,22.017l-0.01,6.933l-7.21-0.045c0,0-3.119-0.151-3.401-3.235c-0.277-3.016,3.236-3.575,3.236-3.575
					L17.526,22.017z"/>
			</g>
			<g>
				<path d="M12.512,0.481c0,0,2.488,0.588,3.006,1.443c0.522,0.847,3.719,6.458,3.719,6.458l-3.085,1.766l7.93-0.406l4.374-6.645
					l-3.191,1.831L23.39,1.647C23.39,1.647,22.984-0.901,12.512,0.481z"/>
				<path d="M10.903,12.604L4.907,9.123L8.562,2.9c0,0,1.69-2.61,4.516-1.308c2.736,1.27,1.459,4.578,1.459,4.578L10.903,12.604z"/>
			</g>
		</g>
	</g>
</g>
</svg>
