<?xml version="1.0" encoding="utf-8"?>
<!-- Generator: Adobe Illustrator 16.0.4, SVG Export Plug-In . SVG Version: 6.00 Build 0)  -->
<!DOCTYPE svg PUBLIC "-//W3C//DTD SVG 1.1//EN" "http://www.w3.org/Graphics/SVG/1.1/DTD/svg11.dtd">
<svg version="1.1" id="Layer_1" xmlns="http://www.w3.org/2000/svg" xmlns:xlink="http://www.w3.org/1999/xlink" x="0px" y="0px"
	 width="32px" height="32px" viewBox="0 0 32 32" enable-background="new 0 0 32 32" xml:space="preserve">
<g id="Layer_3">
	<g>
		<polygon points="17,14.086 17,9 13,9 13,9.114 13,11.542 13,19 23,19 23,14.021 		"/>
		<path id="schedule_1_" d="M15.889,5.003c6.065,0,10.998,4.933,10.998,10.997c0,6.064-4.933,10.997-10.998,10.997
			c-2.604,0-4.986-0.914-6.87-2.433l3.028-2.617L0.111,17.73l1.9,12.895l3.17-2.738C8.017,30.439,11.767,32,15.889,32
			c8.837,0,16-7.163,16-16c0-8.836-7.162-16-16-16C8.959,0,3.057,4.408,0.834,10.572l5.114,0.755
			C7.709,7.597,11.495,5.003,15.889,5.003z"/>
	</g>
</g>
</svg>
