<?xml version="1.0" encoding="utf-8"?>
<!-- Generator: Adobe Illustrator 16.0.4, SVG Export Plug-In . SVG Version: 6.00 Build 0)  -->
<!DOCTYPE svg PUBLIC "-//W3C//DTD SVG 1.1//EN" "http://www.w3.org/Graphics/SVG/1.1/DTD/svg11.dtd">
<svg version="1.1" id="Layer_1" xmlns="http://www.w3.org/2000/svg" xmlns:xlink="http://www.w3.org/1999/xlink" x="0px" y="0px"
	 width="32px" height="32px" viewBox="0 0 32 32" enable-background="new 0 0 32 32" xml:space="preserve">
<g id="Layer_4">
	<path d="M27.08,15h4.768c-0.392-5-2.408-8.154-5.408-10.779l-2.688,4.067C25.529,10.008,26.736,12,27.08,15z"/>
	<path d="M4.768,18H0c0.419,4,2.694,8.17,6.045,10.811l2.667-3.787C6.6,23.258,5.15,20,4.768,18z"/>
	<path d="M31.848,18H27.08c-0.307,2-1.305,4.117-2.78,5.762l2.787,4.055C29.729,25.236,31.484,21,31.848,18z"/>
	<path d="M15.924,27.27c-1.666,0-3.244-0.373-4.668-1.024l-2.691,3.946C10.77,31.341,13.27,32,15.924,32
		c3.262,0,6.294-0.984,8.826-2.668l-2.74-3.863C20.252,26.604,18.166,27.27,15.924,27.27z"/>
	<path d="M15.924,4.732c1.963,0,3.809,0.507,5.417,1.393l2.665-3.91C21.631,0.817,18.874,0,15.924,0
		c-2.554,0-4.96,0.617-7.104,1.685l2.776,3.914C12.929,5.042,14.391,4.732,15.924,4.732z"/>
	<path d="M9.001,7.378l-2.734-3.73C2.797,6.287,0.428,10,0,15h4.768C5.167,12,6.735,9.15,9.001,7.378z"/>
</g>
</svg>
