<?xml version="1.0" encoding="utf-8"?>
<!-- Generator: Adobe Illustrator 16.0.4, SVG Export Plug-In . SVG Version: 6.00 Build 0)  -->
<!DOCTYPE svg PUBLIC "-//W3C//DTD SVG 1.1//EN" "http://www.w3.org/Graphics/SVG/1.1/DTD/svg11.dtd">
<svg version="1.1" id="Layer_1" xmlns="http://www.w3.org/2000/svg" xmlns:xlink="http://www.w3.org/1999/xlink" x="0px" y="0px"
	 width="32px" height="32px" viewBox="0 0 32 32" enable-background="new 0 0 32 32" xml:space="preserve">
<g id="Layer_7">
	<path id="Device_1_" d="M26.725,21.449h-0.002c-0.099,0-0.193,0.01-0.291,0.016l-9.971-9.972c-0.699-0.699-1.713-0.889-2.593-0.589
		l1.558-4.56c0.256-0.751-0.004-1.858-0.566-2.42l-3.257-3.26c-0.563-0.562-1.67-0.821-2.42-0.565L7.227,0.766
		c-0.319,0.108-0.52,0.292-0.576,0.517C6.598,1.507,6.698,1.761,6.94,2l2.099,2.093c0.74,0.742,0.738,1.952-0.004,2.692l-2.249,2.25
		C6.428,9.393,5.95,9.589,5.444,9.589c-0.515,0-0.992-0.197-1.353-0.558L2.001,6.94C1.759,6.701,1.505,6.598,1.284,6.651
		C1.058,6.704,0.877,6.908,0.767,7.227L0.099,9.181c-0.256,0.755,0.004,1.862,0.564,2.422l3.261,3.259
		c0.562,0.562,1.668,0.82,2.417,0.565l4.566-1.558c-0.301,0.879-0.113,1.895,0.586,2.591l9.972,9.974
		c-0.005,0.094-0.015,0.192-0.015,0.291c0,2.914,2.358,5.275,5.272,5.275c2.916,0,5.274-2.361,5.274-5.275
		S29.639,21.449,26.725,21.449z M26.725,29.488c-1.524,0-2.765-1.239-2.765-2.764c0-0.738,0.287-1.437,0.81-1.955
		c0.522-0.521,1.217-0.81,1.955-0.81c1.523,0,2.767,1.235,2.767,2.765C29.488,28.249,28.248,29.488,26.725,29.488z"/>
</g>
</svg>
