<?xml version="1.0" encoding="UTF-8" standalone="no"?>
<svg
   xmlns:dc="http://purl.org/dc/elements/1.1/"
   xmlns:cc="http://creativecommons.org/ns#"
   xmlns:rdf="http://www.w3.org/1999/02/22-rdf-syntax-ns#"
   xmlns:svg="http://www.w3.org/2000/svg"
   xmlns="http://www.w3.org/2000/svg"
   xmlns:sodipodi="http://sodipodi.sourceforge.net/DTD/sodipodi-0.dtd"
   xmlns:inkscape="http://www.inkscape.org/namespaces/inkscape"
   version="1.1"
   x="0px"
   y="0px"
   viewBox="0 0 86.733002 75.462151"
   enable-background="new 0 0 100 100"
   xml:space="preserve"
   id="svg2"
   inkscape:version="0.91 r13725"
   sodipodi:docname="spider-web.svg"
   width="86.733002"
   height="75.462151"><metadata
     id="metadata14"><rdf:RDF><cc:Work
         rdf:about=""><dc:format>image/svg+xml</dc:format><dc:type
           rdf:resource="http://purl.org/dc/dcmitype/StillImage" /><dc:title></dc:title></cc:Work></rdf:RDF></metadata><defs
     id="defs12" /><sodipodi:namedview
     pagecolor="#ffffff"
     bordercolor="#666666"
     borderopacity="1"
     objecttolerance="10"
     gridtolerance="10"
     guidetolerance="10"
     inkscape:pageopacity="0"
     inkscape:pageshadow="2"
     inkscape:window-width="1920"
     inkscape:window-height="1030"
     id="namedview10"
     showgrid="false"
     fit-margin-top="0"
     fit-margin-left="0"
     fit-margin-right="0"
     fit-margin-bottom="0"
     inkscape:zoom="1.888"
     inkscape:cx="44.955983"
     inkscape:cy="25.23"
     inkscape:window-x="0"
     inkscape:window-y="24"
     inkscape:window-maximized="1"
     inkscape:current-layer="svg2" /><path
     d="m 85.932,36.930149 -4.406,0 c -0.743,-0.237 -5.563,-1.888 -10.136,-6.185 -6.603,-6.206 -9.516,-14.678 -8.662,-25.1810003 l 2.502,-4.364 c 0.22,-0.384 0.087,-0.874 -0.297,-1.094 -0.385,-0.22 -0.875,-0.087 -1.094,0.297 l -2.505,4.37 c -6.05,4.427 -12.246,6.6740003 -18.421,6.6750003 -9.941,0 -16.704,-5.9000003 -17.474,-6.6040003 l -2.545,-4.441 c -0.221,-0.384 -0.71,-0.517 -1.094,-0.297 -0.384,0.22 -0.517,0.71 -0.296,1.094 l 2.515,4.389 c 0.852,10.4750003 -2.006,18.9270003 -8.5,25.1210003 -4.518,4.311 -9.331,5.979 -10.073,6.219 l -4.645,0 c -0.443,0 -0.801,0.359 -0.801,0.801 0,0.443 0.358,0.801 0.801,0.801 l 4.603,0 c 9.691,4.066 15.761,10.542 18.041,19.252 1.716,6.559 0.526,12.005 0.514,12.059 l -0.051,0.226 -2.404,4.193 c -0.22,0.384 -0.087,0.874 0.296,1.095 0.126,0.071 0.263,0.106 0.398,0.106 0.278,0 0.548,-0.146 0.696,-0.403 l 2.65,-4.623 c 5.962,-4.232 12.057,-6.384 18.124,-6.384 10.093,0 16.942,6.015 17.717,6.727 l 2.454,4.28 c 0.148,0.258 0.418,0.403 0.696,0.403 0.135,0 0.271,-0.035 0.397,-0.106 0.384,-0.221 0.517,-0.711 0.297,-1.095 l -2.447,-4.269 c -0.15,-0.809 -0.989,-5.914 0.622,-12.01 2.334,-8.83 8.445,-15.373 18.165,-19.451 l 4.362,0 c 0.443,0 0.802,-0.358 0.802,-0.801 10e-4,-0.441 -0.357,-0.8 -0.801,-0.8 z m -15.64,-5.017 c 2.535,2.382 5.118,3.987 7.134,5.017 l -4.51,0 c -0.657,-0.212 -4.296,-1.485 -7.756,-4.726 -5.065,-4.744 -7.305,-11.223 -6.662,-19.258 L 60.989,8.5991487 C 60.888,20.433149 65.874,27.759149 70.292,31.913149 Z m -26.925,4.207 -4.297,-7.497 c 1.113,0.482 2.515,0.873 4.142,0.873 1.524,0 3.042,-0.346 4.54,-1.024 l -4.385,7.648 z m 5.826,-6.94 c 0.473,3.983 2.621,6.385 4.496,7.75 l -8.939,0 4.443,-7.75 z m -7.209,7.75 -8.846,0 c 1.84,-1.364 3.947,-3.764 4.407,-7.744 l 4.439,7.744 z m 0,1.603 -4.327,7.55 c -0.279,-2.265 -1.32,-5.271 -4.541,-7.55 l 8.868,0 z m 1.383,0.81 4.318,7.535 c -1.127,-0.498 -2.55,-0.899 -4.204,-0.899 -1.505,0 -3.007,0.338 -4.491,1 l 4.377,-7.636 z m 1.382,-0.81 9.023,0 c -3.27,2.319 -4.319,5.409 -4.602,7.714 l -4.421,-7.714 z m 5.993,-12.056 2.236,-3.902 c 0.287,6.039 2.957,9.875 5.34,12.117 1.005,0.944 2.023,1.677 2.94,2.238 l -4.233,0 c -0.838,-0.285 -6.859,-2.623 -6.283,-10.453 z m -1.397,-0.786 c -2.024,1.459 -4.087,2.202 -6.133,2.202 -3.178,0 -5.392,-1.804 -5.799,-2.161 l -2.057,-3.588 c 1.873,1.011 4.535,2.005 7.774,2.005 2.823,0 5.636,-0.763 8.398,-2.266 l -2.183,3.808 z m -13.353,0.787 c 0.584,7.885 -5.271,10.161 -6.136,10.453 l -4.237,0 c 0.902,-0.562 1.903,-1.295 2.889,-2.239 2.344,-2.245 4.97,-6.082 5.244,-12.123 l 2.24,3.909 z m -6.18,12.055 c 7.256,3.101 6.408,9.42 6.239,10.351 l -2.06,3.594 c -0.047,-1.1 -0.205,-2.387 -0.574,-3.767 -0.828,-3.096 -2.898,-7.154 -7.967,-10.178 l 4.362,0 z m 7.606,11.189 c 2.006,-1.419 4.045,-2.141 6.063,-2.141 3.237,0 5.481,1.869 5.887,2.232 l 1.973,3.44 c -1.864,-1.021 -4.51,-2.017 -7.743,-2.017 -2.787,0 -5.575,0.746 -8.322,2.22 l 2.142,-3.734 z m 13.346,-0.695 c -0.164,-0.97 -0.946,-7.394 6.306,-10.494 l 4.385,0 c -5.067,3.033 -7.159,7.12 -8.008,10.243 -0.388,1.425 -0.552,2.75 -0.604,3.878 l -2.079,-3.627 z m 8.603,-15.55 c -3.595,-3.412 -5.186,-8.049 -4.739,-13.781 l 2.166,-3.778 c 0.115,8.806 3.904,14.303 7.271,17.456 1.713,1.604 3.455,2.755 4.914,3.556 l -4.03,0 c -0.557,-0.187 -3.148,-1.143 -5.582,-3.453 z m -6.132,-14.575 c -3.319,2.416 -6.719,3.643 -10.105,3.643 -5.317,0 -9.003,-3.059 -9.601,-3.588 l -1.942,-3.387 c 2.54,1.539 6.498,3.267 11.46,3.267 4.129,0 8.25,-1.211 12.289,-3.601 l -2.101,3.666 z m -21.139,0.78 c 0.453,5.741 -1.108,10.386 -4.646,13.803 -2.353,2.272 -4.857,3.236 -5.459,3.445 l -4.091,0 c 1.441,-0.807 3.16,-1.964 4.849,-3.574 3.322,-3.166 7.058,-8.679 7.162,-17.488 l 2.185,3.814 z m -10.206,18.851 c 5.316,2.24 8.668,5.78 9.96,10.526 0.876,3.218 0.469,5.949 0.369,6.51 l -2.032,3.545 c 0.002,-1.696 -0.174,-3.848 -0.802,-6.199 -1.173,-4.399 -4.19,-10.229 -11.784,-14.382 l 4.289,0 z m 11.701,17.865 c 3.308,-2.359 6.672,-3.558 10.007,-3.558 5.413,0 9.094,3.194 9.605,3.662 l 1.946,3.397 c -2.538,-1.546 -6.49,-3.276 -11.466,-3.276 -4.105,0 -8.215,1.194 -12.256,3.549 l 2.164,-3.774 z m 20.998,-0.699 c -0.101,-0.613 -0.467,-3.354 0.423,-6.568 1.324,-4.792 4.689,-8.355 9.996,-10.598 l 4.271,0 c -7.576,4.162 -10.605,10.026 -11.795,14.459 -0.644,2.398 -0.826,4.595 -0.827,6.315 l -2.068,-3.608 z m -11.675,-42.648 c 5.579,0 11.154,-1.725 16.611,-5.1220003 l -2.419,4.2200003 c -4.617,3.372 -9.347,5.084 -14.059,5.085 -7.54,0 -12.712,-4.438 -13.414,-5.074 L 27.476,8.3981487 c 3.18,2.0620003 8.547,4.6530003 15.438,4.6530003 z m -26.341,18.872 c 4.369,-4.148 9.299,-11.465 9.188,-23.2950003 l 2.444,4.2650003 c 0.644,8.013 -1.545,14.492 -6.512,19.255 -3.327,3.191 -6.865,4.516 -7.646,4.782 l -4.529,0 c 1.994,-1.028 4.55,-2.63 7.055,-5.007 z m 8.441,25.528 c -1.505,-5.811 -5.498,-13.556 -15.832,-18.918 l 4.719,0 c 7.436,3.115 12.118,8.07 13.917,14.729 1.236,4.571 0.621,8.437 0.496,9.118 l -2.363,4.122 c 0.106,-2.307 -0.018,-5.502 -0.937,-9.051 z m 18.655,4.999 c -5.489,0 -10.978,1.653 -16.361,4.91 l 2.379,-4.148 c 4.616,-3.307 9.325,-4.985 13.997,-4.985 7.631,0 12.803,4.531 13.44,5.117 l 2.209,3.854 c -3.216,-2.098 -8.661,-4.748 -15.664,-4.748 z m 18.185,-4.876 c -0.931,3.525 -1.092,6.706 -1.016,9.028 l -2.325,-4.059 c -0.13,-0.734 -0.708,-4.621 0.536,-9.203 1.823,-6.709 6.507,-11.69 13.918,-14.808 l 4.826,0 c -10.342,5.374 -14.388,13.18 -15.939,19.042 z"
     id="path4"
     inkscape:connector-curvature="0" /></svg>