<?xml version="1.0" encoding="UTF-8" standalone="no"?>
<svg
   xmlns:dc="http://purl.org/dc/elements/1.1/"
   xmlns:cc="http://creativecommons.org/ns#"
   xmlns:rdf="http://www.w3.org/1999/02/22-rdf-syntax-ns#"
   xmlns:svg="http://www.w3.org/2000/svg"
   xmlns="http://www.w3.org/2000/svg"
   xmlns:sodipodi="http://sodipodi.sourceforge.net/DTD/sodipodi-0.dtd"
   xmlns:inkscape="http://www.inkscape.org/namespaces/inkscape"
   version="1.1"
   x="0px"
   y="0px"
   viewBox="0 0 85.139886 53.996834"
   enable-background="new 0 0 100 100"
   xml:space="preserve"
   id="svg2"
   inkscape:version="0.48.4 r9939"
   width="100%"
   height="100%"
   sodipodi:docname="noun_67219_cc.svg"><metadata
     id="metadata14"><rdf:RDF><cc:Work
         rdf:about=""><dc:format>image/svg+xml</dc:format><dc:type
           rdf:resource="http://purl.org/dc/dcmitype/StillImage" /><dc:title></dc:title></cc:Work></rdf:RDF></metadata><defs
     id="defs12" /><sodipodi:namedview
     pagecolor="#ffffff"
     bordercolor="#666666"
     borderopacity="1"
     objecttolerance="10"
     gridtolerance="10"
     guidetolerance="10"
     inkscape:pageopacity="0"
     inkscape:pageshadow="2"
     inkscape:window-width="1440"
     inkscape:window-height="843"
     id="namedview10"
     showgrid="false"
     fit-margin-top="0"
     fit-margin-left="0"
     fit-margin-right="0"
     fit-margin-bottom="0"
     inkscape:zoom="1.888"
     inkscape:cx="44.428869"
     inkscape:cy="14.396834"
     inkscape:window-x="0"
     inkscape:window-y="0"
     inkscape:window-maximized="1"
     inkscape:current-layer="svg2" /><path
     d="m 85.139886,39.3 c 0,-0.3 -0.4,-0.5 -0.9,-0.8 0.8,-4.1 -0.3,-7.7 -1.4,-6.1 -0.8,1.2 -0.2,4.2 0.1,5.6 -0.5,-0.2 -0.9,-0.3 -1.4,-0.4 -1.4,-2.3 -6,-5.3 -9.8,-7.1 -5.8,-2.7 -11.8,-6.7 -30.1,-8.1 -0.5,-2.8 -1.6,-8.1 -1.9,-9.2 -0.3,-1.3 -1.8,-2.4 -3.7,-2.4 -1.1,0 -4.9,0 -8.2,0 0,-2.6 0,-6.6 0,-7.6 0,-1.5 -1.1,-3.2 -4.1,-3.2 -0.9,0 -0.9,3.2 -0.2,3.2 0.7,0 1.9,0.2 1.9,1.7 0,0.9 0,3.9 0,5.9 -1.1,0 -1.9,0 -2.2,0 -1.1,0 -2.2,0.1 -2.8,2.2 -0.4,1.7 -1.1,7 -1.4,9.2 -8.6,1 -18.29999971,4.8 -18.99999971,13.1 -0.7,9.5 7.90000001,15.1 18.99999971,17 14.5,2.5 31.3,2.1 38.9,-0.3 4.2,-1.3 7.2,-2.2 10.1,-3.4 -0.1,1.3 -0.1,3 1,3 1.5,0 8.4,0 10.1,0 1.7,0 2.3,0.2 2.4,-1.5 0,-1.7 0,-3.2 0,-3.8 0,-0.6 0.1,-2.2 -4.1,-2.4 2.4,-1.4 3.6,-2.5 4.1,-3.6 0.4,-0.1 0.8,-0.1 1.2,-0.2 -0.5,3.7 0.5,6.6 1.5,5.2 0.8,-1.2 0.2,-4.1 -0.1,-5.5 0.7,-0.1 1,-0.2 1,-0.5 z m -64.1,1.2 c -2.4,0 -4.3,-1.9 -4.3,-4.3 0,-2.4 1.9,-4.3 4.3,-4.3 2.4,0 4.3,1.9 4.3,4.3 0.1,2.4 -1.9,4.3 -4.3,4.3 z m 13.9,0.1 c -2.4,0 -4.3,-1.9 -4.3,-4.3 0,-2.4 1.9,-4.3 4.3,-4.3 2.4,0 4.3,1.9 4.3,4.3 0,2.4 -1.9,4.3 -4.3,4.3 z m 14.6,0 c -2.4,0 -4.3,-2 -4.3,-4.3 0,-2.4 1.9,-4.3 4.3,-4.3 2.4,0 4.3,1.9 4.3,4.3 0,2.4 -1.9,4.3 -4.3,4.3 z"
     id="path4"
     inkscape:connector-curvature="0" /></svg>